<svg version="1.1" viewBox="0.0 0.0 600.0 371.0" fill="none" stroke="none" stroke-linecap="square" stroke-miterlimit="10" width="600" height="371" xmlns:xlink="http://www.w3.org/1999/xlink" xmlns="http://www.w3.org/2000/svg"><path fill="#282c34" d="M0 0L600.0 0L600.0 371.0L0 371.0L0 0Z" fill-rule="nonzero"/><path fill="#ff6f31" d="M243.06946 66.24085C261.11865 58.76463 280.46368 54.916668 300.0 54.916668L300.0 203.68333Z" fill-rule="nonzero"/><path fill="#004561" d="M151.23334 203.68333C151.23334 143.51283 187.47917 89.267105 243.06946 66.24085L300.0 203.68333Z" fill-rule="nonzero"/><path fill="#5891ad" d="M300.0 54.916668C382.16156 54.916668 448.76666 121.521774 448.76666 203.68333C448.76666 285.8449 382.16156 352.45 300.0 352.45C217.83844 352.45 151.23334 285.8449 151.23334 203.68333L300.0 203.68333Z" fill-rule="nonzero"/><path stroke="#ffffff" stroke-width="1.0" stroke-linejoin="round" stroke-linecap="round" d="M300.0 203.68333L300.0 54.916668C382.16156 54.916668 448.76666 121.521774 448.76666 203.68333C448.76666 285.8449 382.16156 352.45 300.0 352.45C217.83844 352.45 151.23334 285.8449 151.23334 203.68333" fill-rule="nonzero"/><path stroke="#ffffff" stroke-width="1.0" stroke-linejoin="round" stroke-linecap="round" d="M300.0 203.68333L151.23334 203.68333C151.23334 143.51283 187.47917 89.267105 243.06946 66.24085" fill-rule="nonzero"/><path stroke="#ffffff" stroke-width="1.0" stroke-linejoin="round" stroke-linecap="round" d="M300.0 203.68333L243.06946 66.24085C261.11865 58.76463 280.46368 54.916668 300.0 54.916668" fill-rule="nonzero"/><path fill="#ffffff" d="M19.503124 65.916664L19.503124 57.322914L25.70625 57.322914L25.70625 58.33854L20.64375 58.33854L20.64375 60.96354L25.39375 60.96354L25.39375 61.979164L20.64375 61.979164L20.64375 64.90104L25.909374 64.90104L25.909374 65.916664L19.503124 65.916664ZM27.346874 65.916664L27.346874 59.697914L28.284374 59.697914L28.284374 60.572914Q28.971874 59.55729 30.26875 59.55729Q30.83125 59.55729 31.3 59.760414Q31.784374 59.96354 32.01875 60.291664Q32.253124 60.61979 32.346874 61.05729Q32.39375 61.354164 32.39375 62.08854L32.39375 65.916664L31.346874 65.916664L31.346874 62.135414Q31.346874 61.479164 31.221874 61.166664Q31.096874 60.854164 30.784374 60.666664Q30.471874 60.46354 30.05 60.46354Q29.378124 60.46354 28.878124 60.90104Q28.39375 61.322914 28.39375 62.510414L28.39375 65.916664L27.346874 65.916664ZM36.64375 64.979164L36.8 65.90104Q36.346874 65.99479 36.003124 65.99479Q35.425 65.99479 35.1125 65.822914Q34.8 65.635414 34.659374 65.33854Q34.534374 65.041664 34.534374 64.08854L34.534374 60.510414L33.76875 60.510414L33.76875 59.697914L34.534374 59.697914L34.534374 58.15104L35.58125 57.52604L35.58125 59.697914L36.64375 59.697914L36.64375 60.510414L35.58125 60.510414L35.58125 64.15104Q35.58125 64.604164 35.628124 64.729164Q35.690624 64.854164 35.815624 64.93229Q35.940624 65.010414 36.175 65.010414Q36.3625 65.010414 36.64375 64.979164ZM41.596874 63.916664L42.690624 64.041664Q42.440624 64.99479 41.7375 65.52604Q41.034374 66.05729 39.95625 66.05729Q38.596874 66.05729 37.784374 65.21354Q36.9875 64.36979 36.9875 62.854164Q36.9875 61.291664 37.8 60.43229Q38.6125 59.55729 39.89375 59.55729Q41.14375 59.55729 41.925 60.40104Q42.721874 61.24479 42.721874 62.791664Q42.721874 62.885414 42.721874 63.072914L38.08125 63.072914Q38.14375 64.104164 38.659374 64.65104Q39.175 65.18229 39.95625 65.18229Q40.534374 65.18229 40.940624 64.885414Q41.3625 64.572914 41.596874 63.916664ZM38.14375 62.21354L41.6125 62.21354Q41.55 61.416664 41.221874 61.02604Q40.70625 60.416664 39.909374 60.416664Q39.175 60.416664 38.675 60.90104Q38.190624 61.385414 38.14375 62.21354ZM44.33125 65.916664L44.33125 59.697914L45.284374 59.697914L45.284374 60.635414Q45.64375 59.979164 45.940624 59.77604Q46.253124 59.55729 46.628124 59.55729Q47.159374 59.55729 47.70625 59.885414L47.346874 60.86979Q46.95625 60.635414 46.58125 60.635414Q46.221874 60.635414 45.940624 60.854164Q45.675 61.05729 45.565624 61.43229Q45.378124 61.99479 45.378124 62.65104L45.378124 65.916664L44.33125 65.916664ZM48.346874 68.30729L48.346874 59.697914L49.3 59.697914L49.3 60.49479Q49.64375 60.02604 50.065624 59.791664Q50.503124 59.55729 51.1125 59.55729Q51.909374 59.55729 52.51875 59.96354Q53.128124 60.36979 53.425 61.11979Q53.7375 61.86979 53.7375 62.760414Q53.7375 63.71354 53.39375 64.479164Q53.065624 65.24479 52.409374 65.65104Q51.753124 66.05729 51.034374 66.05729Q50.503124 66.05729 50.08125 65.83854Q49.659374 65.604164 49.39375 65.27604L49.39375 68.30729L48.346874 68.30729ZM49.3 62.83854Q49.3 64.041664 49.784374 64.61979Q50.26875 65.18229 50.95625 65.18229Q51.659374 65.18229 52.159374 64.58854Q52.659374 63.99479 52.659374 62.74479Q52.659374 61.55729 52.175 60.979164Q51.690624 60.385414 51.003124 60.385414Q50.33125 60.385414 49.815624 61.010414Q49.3 61.635414 49.3 62.83854ZM55.33125 65.916664L55.33125 59.697914L56.284374 59.697914L56.284374 60.635414Q56.64375 59.979164 56.940624 59.77604Q57.253124 59.55729 57.628124 59.55729Q58.159374 59.55729 58.70625 59.885414L58.346874 60.86979Q57.95625 60.635414 57.58125 60.635414Q57.221874 60.635414 56.940624 60.854164Q56.675 61.05729 56.565624 61.43229Q56.378124 61.99479 56.378124 62.65104L56.378124 65.916664L55.33125 65.916664ZM59.346874 58.541664L59.346874 57.322914L60.409374 57.322914L60.409374 58.541664L59.346874 58.541664ZM59.346874 65.916664L59.346874 59.697914L60.409374 59.697914L60.409374 65.916664L59.346874 65.916664ZM61.925 64.05729L62.95625 63.90104Q63.05 64.52604 63.440624 64.854164Q63.846874 65.18229 64.58125 65.18229Q65.3 65.18229 65.64375 64.90104Q66.00313 64.604164 66.00313 64.197914Q66.00313 63.83854 65.69063 63.635414Q65.47188 63.49479 64.6125 63.27604Q63.45625 62.979164 63.003124 62.77604Q62.565624 62.55729 62.33125 62.18229Q62.096874 61.80729 62.096874 61.33854Q62.096874 60.93229 62.284374 60.572914Q62.471874 60.21354 62.8 59.979164Q63.05 59.80729 63.471874 59.68229Q63.89375 59.55729 64.39375 59.55729Q65.1125 59.55729 65.65938 59.77604Q66.22188 59.979164 66.4875 60.33854Q66.75313 60.697914 66.84688 61.291664L65.81563 61.43229Q65.75313 60.96354 65.40938 60.697914Q65.08125 60.416664 64.45625 60.416664Q63.7375 60.416664 63.425 60.666664Q63.1125 60.90104 63.1125 61.229164Q63.1125 61.43229 63.2375 61.58854Q63.378124 61.760414 63.64375 61.86979Q63.8 61.93229 64.58125 62.135414Q65.70625 62.447914 66.14375 62.635414Q66.58125 62.822914 66.83125 63.18229Q67.08125 63.541664 67.08125 64.08854Q67.08125 64.61979 66.76875 65.08854Q66.47188 65.541664 65.89375 65.80729Q65.31563 66.05729 64.58125 66.05729Q63.3625 66.05729 62.721874 65.55729Q62.096874 65.041664 61.925 64.05729ZM73.59688 63.916664L74.69063 64.041664Q74.44063 64.99479 73.7375 65.52604Q73.03438 66.05729 71.95625 66.05729Q70.59688 66.05729 69.78438 65.21354Q68.9875 64.36979 68.9875 62.854164Q68.9875 61.291664 69.8 60.43229Q70.6125 59.55729 71.89375 59.55729Q73.14375 59.55729 73.925 60.40104Q74.72188 61.24479 74.72188 62.791664Q74.72188 62.885414 74.72188 63.072914L70.08125 63.072914Q70.14375 64.104164 70.65938 64.65104Q71.175 65.18229 71.95625 65.18229Q72.53438 65.18229 72.94063 64.885414Q73.3625 64.572914 73.59688 63.916664ZM70.14375 62.21354L73.6125 62.21354Q73.55 61.416664 73.22188 61.02604Q72.70625 60.416664 71.90938 60.416664Q71.175 60.416664 70.675 60.90104Q70.19063 61.385414 70.14375 62.21354Z" fill-rule="nonzero"/><path fill="#8b8d91" d="M24.51875 76.43229L23.471874 76.510414Q23.33125 75.885414 23.08125 75.604164Q22.64375 75.15104 22.01875 75.15104Q21.51875 75.15104 21.128124 75.43229Q20.64375 75.80729 20.346874 76.510414Q20.065624 77.197914 20.05 78.479164Q20.425 77.90104 20.971874 77.61979Q21.534374 77.33854 22.14375 77.33854Q23.190624 77.33854 23.925 78.11979Q24.675 78.90104 24.675 80.11979Q24.675 80.93229 24.315624 81.635414Q23.971874 82.322914 23.3625 82.697914Q22.753124 83.05729 21.9875 83.05729Q20.659374 83.05729 19.83125 82.08854Q19.003124 81.11979 19.003124 78.90104Q19.003124 76.40104 19.925 75.27604Q20.721874 74.291664 22.08125 74.291664Q23.096874 74.291664 23.7375 74.86979Q24.39375 75.43229 24.51875 76.43229ZM20.221874 80.135414Q20.221874 80.68229 20.440624 81.18229Q20.675 81.666664 21.08125 81.93229Q21.503124 82.197914 21.971874 82.197914Q22.628124 82.197914 23.1125 81.666664Q23.596874 81.11979 23.596874 80.197914Q23.596874 79.30729 23.1125 78.791664Q22.64375 78.27604 21.925 78.27604Q21.20625 78.27604 20.70625 78.791664Q20.221874 79.30729 20.221874 80.135414ZM26.64375 82.916664L26.64375 81.71354L27.846874 81.71354L27.846874 82.916664L26.64375 82.916664ZM29.05 80.65104L30.1125 80.510414Q30.284374 81.40104 30.721874 81.80729Q31.159374 82.197914 31.784374 82.197914Q32.534374 82.197914 33.05 81.68229Q33.565624 81.166664 33.565624 80.40104Q33.565624 79.68229 33.08125 79.21354Q32.6125 78.729164 31.878124 78.729164Q31.58125 78.729164 31.128124 78.854164L31.253124 77.916664Q31.3625 77.93229 31.425 77.93229Q32.096874 77.93229 32.628124 77.58854Q33.175 77.229164 33.175 76.49479Q33.175 75.916664 32.784374 75.541664Q32.39375 75.15104 31.76875 75.15104Q31.159374 75.15104 30.7375 75.541664Q30.33125 75.93229 30.221874 76.697914L29.159374 76.510414Q29.346874 75.46354 30.034374 74.885414Q30.721874 74.291664 31.7375 74.291664Q32.440624 74.291664 33.034374 74.604164Q33.628124 74.90104 33.940624 75.416664Q34.253124 75.93229 34.253124 76.52604Q34.253124 77.072914 33.95625 77.541664Q33.659374 77.99479 33.08125 78.260414Q33.83125 78.43229 34.253124 78.99479Q34.675 79.541664 34.675 80.385414Q34.675 81.510414 33.846874 82.291664Q33.034374 83.072914 31.784374 83.072914Q30.659374 83.072914 29.909374 82.40104Q29.159374 81.71354 29.05 80.65104ZM36.253124 76.385414Q36.253124 75.46354 36.70625 74.822914Q37.175 74.18229 38.05 74.18229Q38.8625 74.18229 39.39375 74.760414Q39.925 75.33854 39.925 76.447914Q39.925 77.541664 39.378124 78.135414Q38.846874 78.71354 38.065624 78.71354Q37.284374 78.71354 36.76875 78.135414Q36.253124 77.55729 36.253124 76.385414ZM38.08125 74.90104Q37.690624 74.90104 37.425 75.24479Q37.175 75.58854 37.175 76.49479Q37.175 77.322914 37.425 77.666664Q37.690624 77.99479 38.08125 77.99479Q38.4875 77.99479 38.7375 77.65104Q39.003124 77.30729 39.003124 76.416664Q39.003124 75.572914 38.7375 75.24479Q38.471874 74.90104 38.08125 74.90104ZM38.08125 83.229164L42.784374 74.18229L43.64375 74.18229L38.95625 83.229164L38.08125 83.229164ZM41.8 80.90104Q41.8 79.979164 42.253124 79.33854Q42.721874 78.697914 43.6125 78.697914Q44.425 78.697914 44.95625 79.27604Q45.4875 79.83854 45.4875 80.96354Q45.4875 82.05729 44.940624 82.65104Q44.409374 83.229164 43.6125 83.229164Q42.846874 83.229164 42.315624 82.65104Q41.8 82.072914 41.8 80.90104ZM43.64375 79.416664Q43.2375 79.416664 42.971874 79.760414Q42.721874 80.104164 42.721874 81.010414Q42.721874 81.822914 42.9875 82.166664Q43.253124 82.510414 43.64375 82.510414Q44.034374 82.510414 44.3 82.166664Q44.565624 81.822914 44.565624 80.916664Q44.565624 80.08854 44.3 79.760414Q44.034374 79.416664 43.64375 79.416664Z" fill-rule="nonzero"/><path stroke="#b4b6b9" stroke-width="1.0" stroke-linecap="butt" d="M18.55 70.416664L145.23334 70.416664L272.42822 65.07059" fill-rule="nonzero"/><path fill="#8b8d91" d="M274.42822 65.07059C274.42822 63.966015 273.53278 63.070583 272.42822 63.070583C271.32364 63.070583 270.42822 63.966015 270.42822 65.07059C270.42822 66.175156 271.32364 67.07059 272.42822 67.07059C273.53278 67.07059 274.42822 66.175156 274.42822 65.07059" fill-rule="nonzero"/><path fill="#ffffff" d="M19.440624 120.66552L19.440624 112.07177L21.159374 112.07177L23.190624 118.149895Q23.471874 119.00927 23.596874 119.431145Q23.7375 118.962395 24.05 118.056145L26.1125 112.07177L27.64375 112.07177L27.64375 120.66552L26.55 120.66552L26.55 113.47802L24.05 120.66552L23.01875 120.66552L20.534374 113.35302L20.534374 120.66552L19.440624 120.66552ZM28.346874 113.29052L28.346874 112.07177L29.409374 112.07177L29.409374 113.29052L28.346874 113.29052ZM28.346874 120.66552L28.346874 114.44677L29.409374 114.44677L29.409374 120.66552L28.346874 120.66552ZM35.378124 120.66552L35.378124 119.88427Q34.784374 120.806145 33.64375 120.806145Q32.89375 120.806145 32.26875 120.399895Q31.64375 119.97802 31.3 119.243645Q30.95625 118.50927 30.95625 117.556145Q30.95625 116.63427 31.26875 115.868645Q31.58125 115.10302 32.20625 114.712395Q32.83125 114.306145 33.596874 114.306145Q34.159374 114.306145 34.596874 114.54052Q35.034374 114.774895 35.315624 115.149895L35.315624 112.07177L36.3625 112.07177L36.3625 120.66552L35.378124 120.66552ZM32.05 117.556145Q32.05 118.75927 32.55 119.35302Q33.05 119.931145 33.7375 119.931145Q34.425 119.931145 34.909374 119.368645Q35.39375 118.806145 35.39375 117.649895Q35.39375 116.368645 34.89375 115.774895Q34.409374 115.181145 33.690624 115.181145Q32.9875 115.181145 32.51875 115.75927Q32.05 116.32177 32.05 117.556145ZM37.925 118.087395L37.925 117.024895L41.175 117.024895L41.175 118.087395L37.925 118.087395ZM42.440624 120.66552L42.440624 112.07177L44.159374 112.07177L46.190624 118.149895Q46.471874 119.00927 46.596874 119.431145Q46.7375 118.962395 47.05 118.056145L49.1125 112.07177L50.64375 112.07177L50.64375 120.66552L49.55 120.66552L49.55 113.47802L47.05 120.66552L46.01875 120.66552L43.534374 113.35302L43.534374 120.66552L42.440624 120.66552ZM55.409374 119.899895Q54.815624 120.399895 54.26875 120.60302Q53.7375 120.806145 53.1125 120.806145Q52.08125 120.806145 51.534374 120.306145Q50.9875 119.806145 50.9875 119.024895Q50.9875 118.57177 51.190624 118.19677Q51.39375 117.806145 51.7375 117.587395Q52.08125 117.35302 52.503124 117.243645Q52.8 117.149895 53.440624 117.07177Q54.70625 116.931145 55.315624 116.712395Q55.315624 116.493645 55.315624 116.44677Q55.315624 115.79052 55.01875 115.524895Q54.6125 115.181145 53.815624 115.181145Q53.08125 115.181145 52.721874 115.44677Q52.3625 115.69677 52.190624 116.35302L51.159374 116.212395Q51.3 115.556145 51.628124 115.149895Q51.95625 114.743645 52.565624 114.524895Q53.175 114.306145 53.971874 114.306145Q54.76875 114.306145 55.26875 114.493645Q55.76875 114.681145 56.003124 114.962395Q56.2375 115.243645 56.33125 115.681145Q56.378124 115.94677 56.378124 116.649895L56.378124 118.056145Q56.378124 119.524895 56.440624 119.91552Q56.51875 120.306145 56.721874 120.66552L55.6125 120.66552Q55.45625 120.337395 55.409374 119.899895ZM55.315624 117.54052Q54.7375 117.774895 53.596874 117.94677Q52.940624 118.04052 52.675 118.16552Q52.409374 118.274895 52.253124 118.493645Q52.1125 118.712395 52.1125 118.993645Q52.1125 119.41552 52.425 119.69677Q52.753124 119.97802 53.3625 119.97802Q53.971874 119.97802 54.440624 119.712395Q54.925 119.44677 55.14375 118.97802Q55.315624 118.618645 55.315624 117.931145L55.315624 117.54052ZM58.33125 120.66552L58.33125 114.44677L59.284374 114.44677L59.284374 115.38427Q59.64375 114.72802 59.940624 114.524895Q60.253124 114.306145 60.628124 114.306145Q61.159374 114.306145 61.70625 114.63427L61.346874 115.618645Q60.95625 115.38427 60.58125 115.38427Q60.221874 115.38427 59.940624 115.60302Q59.675 115.806145 59.565624 116.181145Q59.378124 116.743645 59.378124 117.399895L59.378124 120.66552L58.33125 120.66552ZM62.346874 120.66552L62.346874 112.07177L63.409374 112.07177L63.409374 116.97802L65.89375 114.44677L67.26875 114.44677L64.87813 116.743645L67.50313 120.66552L66.20625 120.66552L64.14375 117.47802L63.409374 118.19677L63.409374 120.66552L62.346874 120.66552ZM72.59688 118.66552L73.69063 118.79052Q73.44063 119.743645 72.7375 120.274895Q72.03438 120.806145 70.95625 120.806145Q69.59688 120.806145 68.78438 119.962395Q67.9875 119.118645 67.9875 117.60302Q67.9875 116.04052 68.8 115.181145Q69.6125 114.306145 70.89375 114.306145Q72.14375 114.306145 72.925 115.149895Q73.72188 115.993645 73.72188 117.54052Q73.72188 117.63427 73.72188 117.82177L69.08125 117.82177Q69.14375 118.85302 69.65938 119.399895Q70.175 119.931145 70.95625 119.931145Q71.53438 119.931145 71.94063 119.63427Q72.3625 119.32177 72.59688 118.66552ZM69.14375 116.962395L72.6125 116.962395Q72.55 116.16552 72.22188 115.774895Q71.70625 115.16552 70.90938 115.16552Q70.175 115.16552 69.675 115.649895Q69.19063 116.13427 69.14375 116.962395ZM77.64375 119.72802L77.8 120.649895Q77.34688 120.743645 77.00313 120.743645Q76.425 120.743645 76.1125 120.57177Q75.8 120.38427 75.65938 120.087395Q75.53438 119.79052 75.53438 118.837395L75.53438 115.25927L74.76875 115.25927L74.76875 114.44677L75.53438 114.44677L75.53438 112.899895L76.58125 112.274895L76.58125 114.44677L77.64375 114.44677L77.64375 115.25927L76.58125 115.25927L76.58125 118.899895Q76.58125 119.35302 76.62813 119.47802Q76.69063 119.60302 76.81563 119.681145Q76.94063 119.75927 77.175 119.75927Q77.3625 119.75927 77.64375 119.72802Z" fill-rule="nonzero"/><path fill="#8b8d91" d="M23.01875 137.66551L21.971874 137.66551L21.971874 130.94676Q21.58125 131.30614 20.95625 131.68114Q20.346874 132.04051 19.8625 132.21239L19.8625 131.19676Q20.7375 130.77489 21.39375 130.19676Q22.065624 129.60301 22.346874 129.04051L23.01875 129.04051L23.01875 137.66551ZM27.675 133.00926Q27.01875 132.75926 26.690624 132.32176Q26.378124 131.86864 26.378124 131.25926Q26.378124 130.32176 27.05 129.68114Q27.7375 129.04051 28.846874 129.04051Q29.971874 129.04051 30.659374 129.69676Q31.346874 130.35301 31.346874 131.29051Q31.346874 131.88426 31.034374 132.32176Q30.721874 132.75926 30.08125 133.00926Q30.878124 133.25926 31.284374 133.83739Q31.690624 134.41551 31.690624 135.21239Q31.690624 136.30614 30.909374 137.05614Q30.14375 137.80614 28.8625 137.80614Q27.596874 137.80614 26.815624 137.05614Q26.034374 136.30614 26.034374 135.18114Q26.034374 134.33739 26.45625 133.77489Q26.89375 133.21239 27.675 133.00926ZM27.45625 131.21239Q27.45625 131.82176 27.846874 132.21239Q28.253124 132.60301 28.878124 132.60301Q29.4875 132.60301 29.878124 132.22801Q30.26875 131.83739 30.26875 131.27489Q30.26875 130.69676 29.8625 130.30614Q29.45625 129.89989 28.8625 129.89989Q28.253124 129.89989 27.846874 130.29051Q27.45625 130.68114 27.45625 131.21239ZM27.128124 135.18114Q27.128124 135.63426 27.33125 136.05614Q27.55 136.47801 27.971874 136.71239Q28.39375 136.94676 28.878124 136.94676Q29.628124 136.94676 30.1125 136.46239Q30.6125 135.97801 30.6125 135.22801Q30.6125 134.46239 30.1125 133.96239Q29.6125 133.46239 28.846874 133.46239Q28.096874 133.46239 27.6125 133.96239Q27.128124 134.44676 27.128124 135.18114ZM33.64375 137.66551L33.64375 136.46239L34.846874 136.46239L34.846874 137.66551L33.64375 137.66551ZM37.675 133.00926Q37.01875 132.75926 36.690624 132.32176Q36.378124 131.86864 36.378124 131.25926Q36.378124 130.32176 37.05 129.68114Q37.7375 129.04051 38.846874 129.04051Q39.971874 129.04051 40.659374 129.69676Q41.346874 130.35301 41.346874 131.29051Q41.346874 131.88426 41.034374 132.32176Q40.721874 132.75926 40.08125 133.00926Q40.878124 133.25926 41.284374 133.83739Q41.690624 134.41551 41.690624 135.21239Q41.690624 136.30614 40.909374 137.05614Q40.14375 137.80614 38.8625 137.80614Q37.596874 137.80614 36.815624 137.05614Q36.034374 136.30614 36.034374 135.18114Q36.034374 134.33739 36.45625 133.77489Q36.89375 133.21239 37.675 133.00926ZM37.45625 131.21239Q37.45625 131.82176 37.846874 132.21239Q38.253124 132.60301 38.878124 132.60301Q39.4875 132.60301 39.878124 132.22801Q40.26875 131.83739 40.26875 131.27489Q40.26875 130.69676 39.8625 130.30614Q39.45625 129.89989 38.8625 129.89989Q38.253124 129.89989 37.846874 130.29051Q37.45625 130.68114 37.45625 131.21239ZM37.128124 135.18114Q37.128124 135.63426 37.33125 136.05614Q37.55 136.47801 37.971874 136.71239Q38.39375 136.94676 38.878124 136.94676Q39.628124 136.94676 40.1125 136.46239Q40.6125 135.97801 40.6125 135.22801Q40.6125 134.46239 40.1125 133.96239Q39.6125 133.46239 38.846874 133.46239Q38.096874 133.46239 37.6125 133.96239Q37.128124 134.44676 37.128124 135.18114ZM43.253124 131.13426Q43.253124 130.21239 43.70625 129.57176Q44.175 128.93114 45.05 128.93114Q45.8625 128.93114 46.39375 129.50926Q46.925 130.08739 46.925 131.19676Q46.925 132.29051 46.378124 132.88426Q45.846874 133.46239 45.065624 133.46239Q44.284374 133.46239 43.76875 132.88426Q43.253124 132.30614 43.253124 131.13426ZM45.08125 129.64989Q44.690624 129.64989 44.425 129.99364Q44.175 130.33739 44.175 131.24364Q44.175 132.07176 44.425 132.41551Q44.690624 132.74364 45.08125 132.74364Q45.4875 132.74364 45.7375 132.39989Q46.003124 132.05614 46.003124 131.16551Q46.003124 130.32176 45.7375 129.99364Q45.471874 129.64989 45.08125 129.64989ZM45.08125 137.97801L49.784374 128.93114L50.64375 128.93114L45.95625 137.97801L45.08125 137.97801ZM48.8 135.64989Q48.8 134.72801 49.253124 134.08739Q49.721874 133.44676 50.6125 133.44676Q51.425 133.44676 51.95625 134.02489Q52.4875 134.58739 52.4875 135.71239Q52.4875 136.80614 51.940624 137.39989Q51.409374 137.97801 50.6125 137.97801Q49.846874 137.97801 49.315624 137.39989Q48.8 136.82176 48.8 135.64989ZM50.64375 134.16551Q50.2375 134.16551 49.971874 134.50926Q49.721874 134.85301 49.721874 135.75926Q49.721874 136.57176 49.9875 136.91551Q50.253124 137.25926 50.64375 137.25926Q51.034374 137.25926 51.3 136.91551Q51.565624 136.57176 51.565624 135.66551Q51.565624 134.83739 51.3 134.50926Q51.034374 134.16551 50.64375 134.16551Z" fill-rule="nonzero"/><path stroke="#b4b6b9" stroke-width="1.0" stroke-linecap="butt" d="M18.55 125.16552L145.23334 125.16552L182.48979 125.16552" fill-rule="nonzero"/><path fill="#8b8d91" d="M184.48979 125.16552C184.48979 124.06095 183.59436 123.16552 182.48979 123.16552C181.38522 123.16552 180.48979 124.06095 180.48979 125.16552C180.48979 126.27009 181.38522 127.16552 182.48979 127.16552C183.59436 127.16552 184.48979 126.27009 184.48979 125.16552" fill-rule="nonzero"/><path fill="#ffffff" d="M478.9969 296.35193L480.0594 296.25818Q480.1375 296.91443 480.41876 297.32068Q480.7 297.72693 481.27814 297.99255Q481.8719 298.24255 482.60626 298.24255Q483.2469 298.24255 483.7469 298.05505Q484.2469 297.85193 484.48126 297.5238Q484.73126 297.18005 484.73126 296.78943Q484.73126 296.38318 484.4969 296.0863Q484.2625 295.7738 483.73126 295.57068Q483.3719 295.43005 482.1844 295.1488Q481.0125 294.86755 480.54376 294.61755Q479.91876 294.28943 479.6219 293.82068Q479.325 293.3363 479.325 292.74255Q479.325 292.10193 479.6844 291.53943Q480.0594 290.9613 480.7625 290.68005Q481.48126 290.38318 482.34064 290.38318Q483.29376 290.38318 484.02814 290.69568Q484.7625 290.99255 485.15314 291.60193Q485.54376 292.19568 485.575 292.94568L484.48126 293.0238Q484.3875 292.2113 483.8719 291.80505Q483.3719 291.38318 482.3875 291.38318Q481.35626 291.38318 480.8875 291.75818Q480.41876 292.13318 480.41876 292.66443Q480.41876 293.13318 480.7469 293.43005Q481.075 293.72693 482.45 294.03943Q483.84064 294.35193 484.35626 294.5863Q485.10626 294.94568 485.46564 295.47693Q485.825 295.99255 485.825 296.69568Q485.825 297.38318 485.4344 297.99255Q485.04376 298.5863 484.3094 298.93005Q483.575 299.25818 482.65314 299.25818Q481.48126 299.25818 480.6844 298.93005Q479.90314 298.5863 479.45 297.8988Q479.0125 297.2113 478.9969 296.35193ZM487.2469 299.11755L487.2469 292.8988L488.1844 292.8988L488.1844 293.7738Q488.48126 293.30505 488.96564 293.03943Q489.45 292.75818 490.075 292.75818Q490.7625 292.75818 491.2 293.03943Q491.65314 293.32068 491.825 293.8363Q492.575 292.75818 493.7469 292.75818Q494.6844 292.75818 495.16876 293.2738Q495.66876 293.7738 495.66876 294.85193L495.66876 299.11755L494.6219 299.11755L494.6219 295.19568Q494.6219 294.57068 494.5125 294.28943Q494.41876 294.00818 494.15314 293.8363Q493.8875 293.66443 493.5125 293.66443Q492.85626 293.66443 492.41876 294.10193Q491.9969 294.53943 491.9969 295.50818L491.9969 299.11755L490.9344 299.11755L490.9344 295.07068Q490.9344 294.36755 490.66876 294.0238Q490.41876 293.66443 489.84064 293.66443Q489.3875 293.66443 489.0125 293.8988Q488.6375 294.13318 488.46564 294.5863Q488.29376 295.03943 488.29376 295.88318L488.29376 299.11755L487.2469 299.11755ZM502.3094 298.35193Q501.71564 298.85193 501.16876 299.05505Q500.6375 299.25818 500.0125 299.25818Q498.98126 299.25818 498.4344 298.75818Q497.8875 298.25818 497.8875 297.47693Q497.8875 297.0238 498.09064 296.6488Q498.29376 296.25818 498.6375 296.03943Q498.98126 295.80505 499.40314 295.69568Q499.7 295.60193 500.34064 295.5238Q501.60626 295.38318 502.21564 295.16443Q502.21564 294.94568 502.21564 294.8988Q502.21564 294.24255 501.91876 293.97693Q501.5125 293.63318 500.71564 293.63318Q499.98126 293.63318 499.6219 293.8988Q499.2625 294.1488 499.09064 294.80505L498.0594 294.66443Q498.2 294.00818 498.52814 293.60193Q498.85626 293.19568 499.46564 292.97693Q500.075 292.75818 500.8719 292.75818Q501.66876 292.75818 502.16876 292.94568Q502.66876 293.13318 502.90314 293.41443Q503.1375 293.69568 503.23126 294.13318Q503.27814 294.3988 503.27814 295.10193L503.27814 296.50818Q503.27814 297.97693 503.34064 298.36755Q503.41876 298.75818 503.6219 299.11755L502.5125 299.11755Q502.35626 298.78943 502.3094 298.35193ZM502.21564 295.99255Q501.6375 296.22693 500.4969 296.3988Q499.84064 296.49255 499.575 296.61755Q499.3094 296.72693 499.15314 296.94568Q499.0125 297.16443 499.0125 297.44568Q499.0125 297.86755 499.325 298.1488Q499.65314 298.43005 500.2625 298.43005Q500.8719 298.43005 501.34064 298.16443Q501.825 297.8988 502.04376 297.43005Q502.21564 297.07068 502.21564 296.38318L502.21564 295.99255ZM505.21564 299.11755L505.21564 290.5238L506.27814 290.5238L506.27814 299.11755L505.21564 299.11755ZM508.21564 299.11755L508.21564 290.5238L509.27814 290.5238L509.27814 299.11755L508.21564 299.11755ZM510.825 296.53943L510.825 295.47693L514.075 295.47693L514.075 296.53943L510.825 296.53943ZM515.325 299.11755L515.325 290.5238L518.5594 290.5238Q519.54376 290.5238 520.1375 290.78943Q520.73126 291.05505 521.0594 291.60193Q521.40314 292.13318 521.40314 292.72693Q521.40314 293.2738 521.10626 293.75818Q520.8094 294.24255 520.2 294.53943Q520.98126 294.7738 521.3875 295.3363Q521.8094 295.88318 521.8094 296.63318Q521.8094 297.22693 521.5594 297.75818Q521.3094 298.2738 520.9344 298.55505Q520.5594 298.8363 519.98126 298.97693Q519.41876 299.11755 518.60626 299.11755L515.325 299.11755ZM516.46564 294.13318L518.325 294.13318Q519.075 294.13318 519.40314 294.03943Q519.84064 293.91443 520.0594 293.61755Q520.27814 293.30505 520.27814 292.85193Q520.27814 292.43005 520.075 292.10193Q519.8719 291.7738 519.48126 291.66443Q519.10626 291.53943 518.1844 291.53943L516.46564 291.53943L516.46564 294.13318ZM516.46564 298.10193L518.60626 298.10193Q519.15314 298.10193 519.3719 298.05505Q519.77814 297.99255 520.02814 297.8363Q520.29376 297.66443 520.46564 297.35193Q520.6375 297.03943 520.6375 296.63318Q520.6375 296.1488 520.3875 295.78943Q520.15314 295.43005 519.71564 295.28943Q519.27814 295.1488 518.45 295.1488L516.46564 295.1488L516.46564 298.10193ZM527.325 299.11755L527.325 298.19568Q526.59064 299.25818 525.34064 299.25818Q524.79376 299.25818 524.3094 299.05505Q523.84064 298.8363 523.60626 298.5238Q523.3719 298.19568 523.27814 297.72693Q523.21564 297.43005 523.21564 296.74255L523.21564 292.8988L524.27814 292.8988L524.27814 296.35193Q524.27814 297.16443 524.34064 297.4613Q524.4344 297.86755 524.7469 298.11755Q525.075 298.35193 525.5594 298.35193Q526.02814 298.35193 526.4344 298.11755Q526.85626 297.86755 527.02814 297.44568Q527.21564 297.0238 527.21564 296.22693L527.21564 292.8988L528.2625 292.8988L528.2625 299.11755L527.325 299.11755ZM529.825 297.25818L530.85626 297.10193Q530.95 297.72693 531.34064 298.05505Q531.7469 298.38318 532.48126 298.38318Q533.2 298.38318 533.54376 298.10193Q533.90314 297.80505 533.90314 297.3988Q533.90314 297.03943 533.59064 296.8363Q533.3719 296.69568 532.5125 296.47693Q531.35626 296.18005 530.90314 295.97693Q530.46564 295.75818 530.23126 295.38318Q529.9969 295.00818 529.9969 294.53943Q529.9969 294.13318 530.1844 293.7738Q530.3719 293.41443 530.7 293.18005Q530.95 293.00818 531.3719 292.88318Q531.79376 292.75818 532.29376 292.75818Q533.0125 292.75818 533.5594 292.97693Q534.1219 293.18005 534.3875 293.53943Q534.65314 293.8988 534.7469 294.49255L533.71564 294.63318Q533.65314 294.16443 533.3094 293.8988Q532.98126 293.61755 532.35626 293.61755Q531.6375 293.61755 531.325 293.86755Q531.0125 294.10193 531.0125 294.43005Q531.0125 294.63318 531.1375 294.78943Q531.27814 294.9613 531.54376 295.07068Q531.7 295.13318 532.48126 295.3363Q533.60626 295.6488 534.04376 295.8363Q534.48126 296.0238 534.73126 296.38318Q534.98126 296.74255 534.98126 297.28943Q534.98126 297.82068 534.66876 298.28943Q534.3719 298.74255 533.79376 299.00818Q533.21564 299.25818 532.48126 299.25818Q531.2625 299.25818 530.6219 298.75818Q529.9969 298.24255 529.825 297.25818ZM537.2469 291.74255L537.2469 290.5238L538.3094 290.5238L538.3094 291.74255L537.2469 291.74255ZM537.2469 299.11755L537.2469 292.8988L538.3094 292.8988L538.3094 299.11755L537.2469 299.11755ZM540.2469 299.11755L540.2469 292.8988L541.1844 292.8988L541.1844 293.7738Q541.8719 292.75818 543.16876 292.75818Q543.73126 292.75818 544.2 292.9613Q544.6844 293.16443 544.91876 293.49255Q545.15314 293.82068 545.2469 294.25818Q545.29376 294.55505 545.29376 295.28943L545.29376 299.11755L544.2469 299.11755L544.2469 295.3363Q544.2469 294.68005 544.1219 294.36755Q543.9969 294.05505 543.6844 293.86755Q543.3719 293.66443 542.95 293.66443Q542.27814 293.66443 541.77814 294.10193Q541.29376 294.5238 541.29376 295.7113L541.29376 299.11755L540.2469 299.11755ZM551.4969 297.11755L552.59064 297.24255Q552.34064 298.19568 551.6375 298.72693Q550.9344 299.25818 549.85626 299.25818Q548.4969 299.25818 547.6844 298.41443Q546.8875 297.57068 546.8875 296.05505Q546.8875 294.49255 547.7 293.63318Q548.5125 292.75818 549.79376 292.75818Q551.04376 292.75818 551.825 293.60193Q552.6219 294.44568 552.6219 295.99255Q552.6219 296.0863 552.6219 296.2738L547.98126 296.2738Q548.04376 297.30505 548.5594 297.85193Q549.075 298.38318 549.85626 298.38318Q550.4344 298.38318 550.84064 298.0863Q551.2625 297.7738 551.4969 297.11755ZM548.04376 295.41443L551.5125 295.41443Q551.45 294.61755 551.1219 294.22693Q550.60626 293.61755 549.8094 293.61755Q549.075 293.61755 548.575 294.10193Q548.09064 294.5863 548.04376 295.41443ZM553.825 297.25818L554.85626 297.10193Q554.95 297.72693 555.34064 298.05505Q555.7469 298.38318 556.48126 298.38318Q557.2 298.38318 557.54376 298.10193Q557.90314 297.80505 557.90314 297.3988Q557.90314 297.03943 557.59064 296.8363Q557.3719 296.69568 556.5125 296.47693Q555.35626 296.18005 554.90314 295.97693Q554.46564 295.75818 554.23126 295.38318Q553.9969 295.00818 553.9969 294.53943Q553.9969 294.13318 554.1844 293.7738Q554.3719 293.41443 554.7 293.18005Q554.95 293.00818 555.3719 292.88318Q555.79376 292.75818 556.29376 292.75818Q557.0125 292.75818 557.5594 292.97693Q558.1219 293.18005 558.3875 293.53943Q558.65314 293.8988 558.7469 294.49255L557.71564 294.63318Q557.65314 294.16443 557.3094 293.8988Q556.98126 293.61755 556.35626 293.61755Q555.6375 293.61755 555.325 293.86755Q555.0125 294.10193 555.0125 294.43005Q555.0125 294.63318 555.1375 294.78943Q555.27814 294.9613 555.54376 295.07068Q555.7 295.13318 556.48126 295.3363Q557.60626 295.6488 558.04376 295.8363Q558.48126 296.0238 558.73126 296.38318Q558.98126 296.74255 558.98126 297.28943Q558.98126 297.82068 558.66876 298.28943Q558.3719 298.74255 557.79376 299.00818Q557.21564 299.25818 556.48126 299.25818Q555.2625 299.25818 554.6219 298.75818Q553.9969 298.24255 553.825 297.25818ZM560.825 297.25818L561.85626 297.10193Q561.95 297.72693 562.34064 298.05505Q562.7469 298.38318 563.48126 298.38318Q564.2 298.38318 564.54376 298.10193Q564.90314 297.80505 564.90314 297.3988Q564.90314 297.03943 564.59064 296.8363Q564.3719 296.69568 563.5125 296.47693Q562.35626 296.18005 561.90314 295.97693Q561.46564 295.75818 561.23126 295.38318Q560.9969 295.00818 560.9969 294.53943Q560.9969 294.13318 561.1844 293.7738Q561.3719 293.41443 561.7 293.18005Q561.95 293.00818 562.3719 292.88318Q562.79376 292.75818 563.29376 292.75818Q564.0125 292.75818 564.5594 292.97693Q565.1219 293.18005 565.3875 293.53943Q565.65314 293.8988 565.7469 294.49255L564.71564 294.63318Q564.65314 294.16443 564.3094 293.8988Q563.98126 293.61755 563.35626 293.61755Q562.6375 293.61755 562.325 293.86755Q562.0125 294.10193 562.0125 294.43005Q562.0125 294.63318 562.1375 294.78943Q562.27814 294.9613 562.54376 295.07068Q562.7 295.13318 563.48126 295.3363Q564.60626 295.6488 565.04376 295.8363Q565.48126 296.0238 565.73126 296.38318Q565.98126 296.74255 565.98126 297.28943Q565.98126 297.82068 565.66876 298.28943Q565.3719 298.74255 564.79376 299.00818Q564.21564 299.25818 563.48126 299.25818Q562.2625 299.25818 561.6219 298.75818Q560.9969 298.24255 560.825 297.25818ZM572.4969 297.11755L573.59064 297.24255Q573.34064 298.19568 572.6375 298.72693Q571.9344 299.25818 570.85626 299.25818Q569.4969 299.25818 568.6844 298.41443Q567.8875 297.57068 567.8875 296.05505Q567.8875 294.49255 568.7 293.63318Q569.5125 292.75818 570.79376 292.75818Q572.04376 292.75818 572.825 293.60193Q573.6219 294.44568 573.6219 295.99255Q573.6219 296.0863 573.6219 296.2738L568.98126 296.2738Q569.04376 297.30505 569.5594 297.85193Q570.075 298.38318 570.85626 298.38318Q571.4344 298.38318 571.84064 298.0863Q572.2625 297.7738 572.4969 297.11755ZM569.04376 295.41443L572.5125 295.41443Q572.45 294.61755 572.1219 294.22693Q571.60626 293.61755 570.8094 293.61755Q570.075 293.61755 569.575 294.10193Q569.09064 294.5863 569.04376 295.41443ZM574.825 297.25818L575.85626 297.10193Q575.95 297.72693 576.34064 298.05505Q576.7469 298.38318 577.48126 298.38318Q578.2 298.38318 578.54376 298.10193Q578.90314 297.80505 578.90314 297.3988Q578.90314 297.03943 578.59064 296.8363Q578.3719 296.69568 577.5125 296.47693Q576.35626 296.18005 575.90314 295.97693Q575.46564 295.75818 575.23126 295.38318Q574.9969 295.00818 574.9969 294.53943Q574.9969 294.13318 575.1844 293.7738Q575.3719 293.41443 575.7 293.18005Q575.95 293.00818 576.3719 292.88318Q576.79376 292.75818 577.29376 292.75818Q578.0125 292.75818 578.5594 292.97693Q579.1219 293.18005 579.3875 293.53943Q579.65314 293.8988 579.7469 294.49255L578.71564 294.63318Q578.65314 294.16443 578.3094 293.8988Q577.98126 293.61755 577.35626 293.61755Q576.6375 293.61755 576.325 293.86755Q576.0125 294.10193 576.0125 294.43005Q576.0125 294.63318 576.1375 294.78943Q576.27814 294.9613 576.54376 295.07068Q576.7 295.13318 577.48126 295.3363Q578.60626 295.6488 579.04376 295.8363Q579.48126 296.0238 579.73126 296.38318Q579.98126 296.74255 579.98126 297.28943Q579.98126 297.82068 579.66876 298.28943Q579.3719 298.74255 578.79376 299.00818Q578.21564 299.25818 577.48126 299.25818Q576.2625 299.25818 575.6219 298.75818Q574.9969 298.24255 574.825 297.25818Z" fill-rule="nonzero"/><path fill="#8b8d91" d="M547.0125 308.6488L547.0125 307.63318L552.575 307.63318L552.575 308.4613Q551.7625 309.3363 550.95 310.78943Q550.15314 312.22693 549.71564 313.75818Q549.3875 314.8363 549.3094 316.11755L548.21564 316.11755Q548.23126 315.10193 548.60626 313.66443Q548.9969 312.22693 549.7 310.8988Q550.41876 309.57068 551.23126 308.6488L547.0125 308.6488ZM553.95 313.86755L555.0594 313.7738Q555.1844 314.5863 555.6219 314.99255Q556.075 315.3988 556.71564 315.3988Q557.46564 315.3988 557.9969 314.82068Q558.52814 314.24255 558.52814 313.30505Q558.52814 312.3988 558.0125 311.88318Q557.5125 311.35193 556.6844 311.35193Q556.1844 311.35193 555.7625 311.5863Q555.35626 311.82068 555.1219 312.18005L554.1375 312.05505L554.96564 307.6488L559.2469 307.6488L559.2469 308.6488L555.8094 308.6488L555.35626 310.9613Q556.1219 310.41443 556.96564 310.41443Q558.09064 310.41443 558.85626 311.19568Q559.6375 311.97693 559.6375 313.2113Q559.6375 314.36755 558.96564 315.22693Q558.1375 316.25818 556.71564 316.25818Q555.54376 316.25818 554.79376 315.60193Q554.0594 314.94568 553.95 313.86755ZM561.54376 316.11755L561.54376 314.91443L562.7469 314.91443L562.7469 316.11755L561.54376 316.11755ZM563.95 311.88318Q563.95 310.35193 564.2625 309.43005Q564.575 308.49255 565.1844 307.99255Q565.8094 307.49255 566.7469 307.49255Q567.4344 307.49255 567.95 307.7738Q568.48126 308.05505 568.825 308.5863Q569.16876 309.10193 569.35626 309.85193Q569.54376 310.60193 569.54376 311.88318Q569.54376 313.3988 569.23126 314.32068Q568.9344 315.24255 568.3094 315.75818Q567.7 316.25818 566.7469 316.25818Q565.5125 316.25818 564.79376 315.36755Q563.95 314.30505 563.95 311.88318ZM565.02814 311.88318Q565.02814 313.99255 565.52814 314.69568Q566.02814 315.3988 566.7469 315.3988Q567.48126 315.3988 567.96564 314.69568Q568.46564 313.99255 568.46564 311.88318Q568.46564 309.75818 567.96564 309.07068Q567.48126 308.36755 566.73126 308.36755Q566.0125 308.36755 565.575 308.97693Q565.02814 309.75818 565.02814 311.88318ZM571.15314 309.5863Q571.15314 308.66443 571.60626 308.0238Q572.075 307.38318 572.95 307.38318Q573.7625 307.38318 574.29376 307.9613Q574.825 308.53943 574.825 309.6488Q574.825 310.74255 574.27814 311.3363Q573.7469 311.91443 572.96564 311.91443Q572.1844 311.91443 571.66876 311.3363Q571.15314 310.75818 571.15314 309.5863ZM572.98126 308.10193Q572.59064 308.10193 572.325 308.44568Q572.075 308.78943 572.075 309.69568Q572.075 310.5238 572.325 310.86755Q572.59064 311.19568 572.98126 311.19568Q573.3875 311.19568 573.6375 310.85193Q573.90314 310.50818 573.90314 309.61755Q573.90314 308.7738 573.6375 308.44568Q573.3719 308.10193 572.98126 308.10193ZM572.98126 316.43005L577.6844 307.38318L578.54376 307.38318L573.85626 316.43005L572.98126 316.43005ZM576.7 314.10193Q576.7 313.18005 577.15314 312.53943Q577.6219 311.8988 578.5125 311.8988Q579.325 311.8988 579.85626 312.47693Q580.3875 313.03943 580.3875 314.16443Q580.3875 315.25818 579.84064 315.85193Q579.3094 316.43005 578.5125 316.43005Q577.7469 316.43005 577.21564 315.85193Q576.7 315.2738 576.7 314.10193ZM578.54376 312.61755Q578.1375 312.61755 577.8719 312.9613Q577.6219 313.30505 577.6219 314.2113Q577.6219 315.0238 577.8875 315.36755Q578.15314 315.7113 578.54376 315.7113Q578.9344 315.7113 579.2 315.36755Q579.46564 315.0238 579.46564 314.11755Q579.46564 313.28943 579.2 312.9613Q578.9344 312.61755 578.54376 312.61755Z" fill-rule="nonzero"/><path stroke="#b4b6b9" stroke-width="1.0" stroke-linecap="butt" d="M581.45 303.61755L454.76666 303.61755L399.93423 303.61755" fill-rule="nonzero"/><path fill="#8b8d91" d="M401.93423 303.61755C401.93423 302.513 401.0388 301.61755 399.93423 301.61755C398.82965 301.61755 397.93423 302.513 397.93423 303.61755C397.93423 304.72214 398.82965 305.61755 399.93423 305.61755C401.0388 305.61755 401.93423 304.72214 401.93423 303.61755" fill-rule="nonzero"/><path fill="#ffffff" d="M205.57812 37.55L205.57812 23.2375L215.9375 23.2375L215.9375 24.925L207.48438 24.925L207.48438 29.3L215.39062 29.3L215.39062 30.9875L207.48438 30.9875L207.48438 35.8625L216.26562 35.8625L216.26562 37.55L205.57812 37.55ZM217.14062 37.55L220.9375 32.159374L217.4375 27.175L219.625 27.175L221.21875 29.6125Q221.67188 30.3 221.9375 30.76875Q222.375 30.128124 222.73438 29.628124L224.48438 27.175L226.57812 27.175L223.0 32.065624L226.85938 37.55L224.70312 37.55L222.5625 34.33125L222.0 33.45625L219.28125 37.55L217.14062 37.55ZM227.3125 41.51875L227.3125 27.175L228.92188 27.175L228.92188 28.51875Q229.48438 27.7375 230.1875 27.346874Q230.90625 26.940624 231.92188 26.940624Q233.25 26.940624 234.26562 27.628124Q235.28125 28.315624 235.79688 29.565624Q236.32812 30.8 236.32812 32.284374Q236.32812 33.878124 235.75 35.159374Q235.1875 36.425 234.09375 37.1125Q233.0 37.784374 231.79688 37.784374Q230.92188 37.784374 230.21875 37.409374Q229.53125 37.034374 229.07812 36.471874L229.07812 41.51875L227.3125 41.51875ZM228.90625 32.425Q228.90625 34.425 229.71875 35.378124Q230.53125 36.33125 231.6875 36.33125Q232.85938 36.33125 233.6875 35.346874Q234.53125 34.3625 234.53125 32.26875Q234.53125 30.3 233.70312 29.315624Q232.89062 28.315624 231.76562 28.315624Q230.64062 28.315624 229.76562 29.378124Q228.90625 30.425 228.90625 32.425ZM238.29688 37.55L238.29688 27.175L239.875 27.175L239.875 28.753124Q240.48438 27.64375 241.0 27.3Q241.51562 26.940624 242.125 26.940624Q243.01562 26.940624 243.9375 27.503124L243.32812 29.14375Q242.6875 28.753124 242.04688 28.753124Q241.46875 28.753124 241.0 29.1125Q240.54688 29.45625 240.34375 30.065624Q240.0625 31.003124 240.0625 32.1125L240.0625 37.55L238.29688 37.55ZM252.42188 34.20625L254.23438 34.440624Q253.8125 36.01875 252.64062 36.909374Q251.48438 37.784374 249.67188 37.784374Q247.40625 37.784374 246.0625 36.39375Q244.73438 34.9875 244.73438 32.45625Q244.73438 29.83125 246.07812 28.39375Q247.42188 26.940624 249.57812 26.940624Q251.65625 26.940624 252.96875 28.3625Q254.29688 29.76875 254.29688 32.346874Q254.29688 32.503124 254.28125 32.815624L246.54688 32.815624Q246.64062 34.51875 247.51562 35.425Q248.39062 36.33125 249.6875 36.33125Q250.65625 36.33125 251.32812 35.83125Q252.01562 35.315624 252.42188 34.20625ZM246.64062 31.3625L252.4375 31.3625Q252.32812 30.065624 251.78125 29.409374Q250.9375 28.39375 249.59375 28.39375Q248.39062 28.39375 247.5625 29.20625Q246.73438 30.003124 246.64062 31.3625ZM255.60938 34.45625L257.35938 34.175Q257.5 35.221874 258.17188 35.784374Q258.84375 36.33125 260.04688 36.33125Q261.25 36.33125 261.82812 35.846874Q262.42188 35.346874 262.42188 34.690624Q262.42188 34.096874 261.90625 33.753124Q261.54688 33.51875 260.10938 33.159374Q258.17188 32.659374 257.42188 32.315624Q256.6875 31.95625 256.29688 31.33125Q255.90625 30.690624 255.90625 29.925Q255.90625 29.2375 256.21875 28.64375Q256.54688 28.05 257.09375 27.659374Q257.5 27.3625 258.20312 27.159374Q258.92188 26.940624 259.73438 26.940624Q260.95312 26.940624 261.875 27.3Q262.79688 27.64375 263.23438 28.253124Q263.67188 28.846874 263.84375 29.846874L262.125 30.08125Q262.0 29.284374 261.4375 28.846874Q260.875 28.39375 259.85938 28.39375Q258.64062 28.39375 258.125 28.8Q257.60938 29.190624 257.60938 29.721874Q257.60938 30.065624 257.82812 30.346874Q258.03125 30.628124 258.5 30.815624Q258.76562 30.909374 260.04688 31.253124Q261.92188 31.753124 262.65625 32.08125Q263.39062 32.39375 263.8125 33.003124Q264.23438 33.596874 264.23438 34.503124Q264.23438 35.378124 263.71875 36.159374Q263.20312 36.940624 262.23438 37.3625Q261.26562 37.784374 260.04688 37.784374Q258.03125 37.784374 256.96875 36.940624Q255.90625 36.096874 255.60938 34.45625ZM265.60938 34.45625L267.35938 34.175Q267.5 35.221874 268.17188 35.784374Q268.84375 36.33125 270.04688 36.33125Q271.25 36.33125 271.82812 35.846874Q272.42188 35.346874 272.42188 34.690624Q272.42188 34.096874 271.90625 33.753124Q271.54688 33.51875 270.10938 33.159374Q268.17188 32.659374 267.42188 32.315624Q266.6875 31.95625 266.29688 31.33125Q265.90625 30.690624 265.90625 29.925Q265.90625 29.2375 266.21875 28.64375Q266.54688 28.05 267.09375 27.659374Q267.5 27.3625 268.20312 27.159374Q268.92188 26.940624 269.73438 26.940624Q270.95312 26.940624 271.875 27.3Q272.79688 27.64375 273.23438 28.253124Q273.67188 28.846874 273.84375 29.846874L272.125 30.08125Q272.0 29.284374 271.4375 28.846874Q270.875 28.39375 269.85938 28.39375Q268.64062 28.39375 268.125 28.8Q267.60938 29.190624 267.60938 29.721874Q267.60938 30.065624 267.82812 30.346874Q268.03125 30.628124 268.5 30.815624Q268.76562 30.909374 270.04688 31.253124Q271.92188 31.753124 272.65625 32.08125Q273.39062 32.39375 273.8125 33.003124Q274.23438 33.596874 274.23438 34.503124Q274.23438 35.378124 273.71875 36.159374Q273.20312 36.940624 272.23438 37.3625Q271.26562 37.784374 270.04688 37.784374Q268.03125 37.784374 266.96875 36.940624Q265.90625 36.096874 265.60938 34.45625ZM275.57812 33.4875L277.28125 33.253124Q277.35938 34.89375 277.90625 35.503124Q278.45312 36.096874 279.42188 36.096874Q280.125 36.096874 280.64062 35.784374Q281.15625 35.45625 281.34375 34.89375Q281.54688 34.33125 281.54688 33.096874L281.54688 23.2375L283.45312 23.2375L283.45312 32.9875Q283.45312 34.784374 283.01562 35.76875Q282.57812 36.753124 281.625 37.284374Q280.6875 37.8 279.42188 37.8Q277.54688 37.8 276.53125 36.721874Q275.53125 35.628124 275.57812 33.4875ZM285.90625 32.95625L287.6875 32.8Q287.8125 33.8625 288.26562 34.55Q288.73438 35.2375 289.70312 35.675Q290.6875 36.096874 291.92188 36.096874Q293.0 36.096874 293.82812 35.784374Q294.65625 35.45625 295.0625 34.89375Q295.46875 34.33125 295.46875 33.659374Q295.46875 32.9875 295.07812 32.4875Q294.6875 31.9875 293.79688 31.64375Q293.21875 31.409374 291.23438 30.940624Q289.26562 30.471874 288.48438 30.05Q287.45312 29.51875 286.95312 28.721874Q286.45312 27.925 286.45312 26.940624Q286.45312 25.846874 287.0625 24.909374Q287.67188 23.971874 288.85938 23.4875Q290.04688 22.9875 291.48438 22.9875Q293.07812 22.9875 294.29688 23.503124Q295.51562 24.01875 296.15625 25.01875Q296.8125 26.003124 296.85938 27.26875L295.04688 27.409374Q294.90625 26.05 294.0625 25.3625Q293.21875 24.659374 291.5625 24.659374Q289.84375 24.659374 289.04688 25.3Q288.26562 25.925 288.26562 26.8Q288.26562 27.58125 288.82812 28.08125Q289.375 28.58125 291.6875 29.096874Q294.0 29.6125 294.85938 30.003124Q296.10938 30.58125 296.70312 31.471874Q297.29688 32.346874 297.29688 33.503124Q297.29688 34.64375 296.64062 35.659374Q295.98438 36.675 294.75 37.2375Q293.53125 37.8 292.0 37.8Q290.0625 37.8 288.75 37.2375Q287.4375 36.659374 286.6875 35.51875Q285.9375 34.378124 285.90625 32.95625ZM314.9375 23.2375L316.82812 23.2375L316.82812 31.503124Q316.82812 33.659374 316.34375 34.940624Q315.85938 36.20625 314.57812 37.003124Q313.3125 37.8 311.23438 37.8Q309.21875 37.8 307.9375 37.1125Q306.67188 36.409374 306.125 35.096874Q305.57812 33.784374 305.57812 31.503124L305.57812 23.2375L307.46875 23.2375L307.46875 31.4875Q307.46875 33.3625 307.8125 34.253124Q308.15625 35.128124 309.0 35.6125Q309.84375 36.08125 311.07812 36.08125Q313.15625 36.08125 314.04688 35.14375Q314.9375 34.190624 314.9375 31.4875L314.9375 23.2375ZM317.60938 34.45625L319.35938 34.175Q319.5 35.221874 320.17188 35.784374Q320.84375 36.33125 322.04688 36.33125Q323.25 36.33125 323.82812 35.846874Q324.42188 35.346874 324.42188 34.690624Q324.42188 34.096874 323.90625 33.753124Q323.54688 33.51875 322.10938 33.159374Q320.17188 32.659374 319.42188 32.315624Q318.6875 31.95625 318.29688 31.33125Q317.90625 30.690624 317.90625 29.925Q317.90625 29.2375 318.21875 28.64375Q318.54688 28.05 319.09375 27.659374Q319.5 27.3625 320.20312 27.159374Q320.92188 26.940624 321.73438 26.940624Q322.95312 26.940624 323.875 27.3Q324.79688 27.64375 325.23438 28.253124Q325.67188 28.846874 325.84375 29.846874L324.125 30.08125Q324.0 29.284374 323.4375 28.846874Q322.875 28.39375 321.85938 28.39375Q320.64062 28.39375 320.125 28.8Q319.60938 29.190624 319.60938 29.721874Q319.60938 30.065624 319.82812 30.346874Q320.03125 30.628124 320.5 30.815624Q320.76562 30.909374 322.04688 31.253124Q323.92188 31.753124 324.65625 32.08125Q325.39062 32.39375 325.8125 33.003124Q326.23438 33.596874 326.23438 34.503124Q326.23438 35.378124 325.71875 36.159374Q325.20312 36.940624 324.23438 37.3625Q323.26562 37.784374 322.04688 37.784374Q320.03125 37.784374 318.96875 36.940624Q317.90625 36.096874 317.60938 34.45625ZM335.42188 34.20625L337.23438 34.440624Q336.8125 36.01875 335.64062 36.909374Q334.48438 37.784374 332.67188 37.784374Q330.40625 37.784374 329.0625 36.39375Q327.73438 34.9875 327.73438 32.45625Q327.73438 29.83125 329.07812 28.39375Q330.42188 26.940624 332.57812 26.940624Q334.65625 26.940624 335.96875 28.3625Q337.29688 29.76875 337.29688 32.346874Q337.29688 32.503124 337.28125 32.815624L329.54688 32.815624Q329.64062 34.51875 330.51562 35.425Q331.39062 36.33125 332.6875 36.33125Q333.65625 36.33125 334.32812 35.83125Q335.01562 35.315624 335.42188 34.20625ZM329.64062 31.3625L335.4375 31.3625Q335.32812 30.065624 334.78125 29.409374Q333.9375 28.39375 332.59375 28.39375Q331.39062 28.39375 330.5625 29.20625Q329.73438 30.003124 329.64062 31.3625ZM339.29688 37.55L339.29688 27.175L340.875 27.175L340.875 28.753124Q341.48438 27.64375 342.0 27.3Q342.51562 26.940624 343.125 26.940624Q344.01562 26.940624 344.9375 27.503124L344.32812 29.14375Q343.6875 28.753124 343.04688 28.753124Q342.46875 28.753124 342.0 29.1125Q341.54688 29.45625 341.34375 30.065624Q341.0625 31.003124 341.0625 32.1125L341.0625 37.55L339.29688 37.55ZM352.46875 37.55L352.46875 23.2375L357.84375 23.2375Q359.48438 23.2375 360.46875 23.675Q361.45312 24.096874 362.01562 25.003124Q362.57812 25.909374 362.57812 26.89375Q362.57812 27.815624 362.07812 28.628124Q361.59375 29.440624 360.57812 29.925Q361.875 30.315624 362.57812 31.2375Q363.28125 32.14375 363.28125 33.39375Q363.28125 34.409374 362.84375 35.26875Q362.42188 36.128124 361.79688 36.596874Q361.17188 37.065624 360.23438 37.315624Q359.29688 37.55 357.92188 37.55L352.46875 37.55ZM354.35938 29.253124L357.45312 29.253124Q358.71875 29.253124 359.26562 29.08125Q359.98438 28.8625 360.34375 28.378124Q360.71875 27.878124 360.71875 27.1125Q360.71875 26.409374 360.375 25.8625Q360.03125 25.315624 359.39062 25.128124Q358.76562 24.925 357.21875 24.925L354.35938 24.925L354.35938 29.253124ZM354.35938 35.8625L357.92188 35.8625Q358.84375 35.8625 359.21875 35.784374Q359.875 35.675 360.3125 35.409374Q360.75 35.128124 361.03125 34.6125Q361.3125 34.08125 361.3125 33.39375Q361.3125 32.596874 360.90625 32.003124Q360.5 31.409374 359.76562 31.175Q359.03125 30.940624 357.67188 30.940624L354.35938 30.940624L354.35938 35.8625ZM372.09375 36.26875Q371.10938 37.096874 370.20312 37.440624Q369.29688 37.784374 368.26562 37.784374Q366.5625 37.784374 365.64062 36.95625Q364.71875 36.1125 364.71875 34.815624Q364.71875 34.05 365.0625 33.425Q365.42188 32.8 365.98438 32.425Q366.54688 32.034374 367.25 31.83125Q367.76562 31.70625 368.8125 31.565624Q370.9375 31.315624 371.9375 30.971874Q371.95312 30.6125 371.95312 30.503124Q371.95312 29.440624 371.45312 28.9875Q370.78125 28.39375 369.45312 28.39375Q368.20312 28.39375 367.60938 28.83125Q367.03125 29.26875 366.75 30.378124L365.03125 30.14375Q365.26562 29.034374 365.79688 28.3625Q366.32812 27.675 367.34375 27.315624Q368.35938 26.940624 369.70312 26.940624Q371.03125 26.940624 371.85938 27.253124Q372.6875 27.565624 373.07812 28.05Q373.46875 28.51875 373.625 29.2375Q373.71875 29.690624 373.71875 30.8625L373.71875 33.20625Q373.71875 35.659374 373.82812 36.315624Q373.9375 36.95625 374.28125 37.55L372.4375 37.55Q372.17188 37.003124 372.09375 36.26875ZM371.9375 32.346874Q370.98438 32.7375 369.0625 33.003124Q367.98438 33.159374 367.53125 33.3625Q367.09375 33.55 366.84375 33.925Q366.59375 34.3 366.59375 34.76875Q366.59375 35.471874 367.125 35.940624Q367.65625 36.409374 368.6875 36.409374Q369.70312 36.409374 370.48438 35.971874Q371.28125 35.51875 371.65625 34.753124Q371.9375 34.14375 371.9375 32.9875L371.9375 32.346874ZM375.60938 34.45625L377.35938 34.175Q377.5 35.221874 378.17188 35.784374Q378.84375 36.33125 380.04688 36.33125Q381.25 36.33125 381.82812 35.846874Q382.42188 35.346874 382.42188 34.690624Q382.42188 34.096874 381.90625 33.753124Q381.54688 33.51875 380.10938 33.159374Q378.17188 32.659374 377.42188 32.315624Q376.6875 31.95625 376.29688 31.33125Q375.90625 30.690624 375.90625 29.925Q375.90625 29.2375 376.21875 28.64375Q376.54688 28.05 377.09375 27.659374Q377.5 27.3625 378.20312 27.159374Q378.92188 26.940624 379.73438 26.940624Q380.95312 26.940624 381.875 27.3Q382.79688 27.64375 383.23438 28.253124Q383.67188 28.846874 383.84375 29.846874L382.125 30.08125Q382.0 29.284374 381.4375 28.846874Q380.875 28.39375 379.85938 28.39375Q378.64062 28.39375 378.125 28.8Q377.60938 29.190624 377.60938 29.721874Q377.60938 30.065624 377.82812 30.346874Q378.03125 30.628124 378.5 30.815624Q378.76562 30.909374 380.04688 31.253124Q381.92188 31.753124 382.65625 32.08125Q383.39062 32.39375 383.8125 33.003124Q384.23438 33.596874 384.23438 34.503124Q384.23438 35.378124 383.71875 36.159374Q383.20312 36.940624 382.23438 37.3625Q381.26562 37.784374 380.04688 37.784374Q378.03125 37.784374 376.96875 36.940624Q375.90625 36.096874 375.60938 34.45625ZM393.42188 34.20625L395.23438 34.440624Q394.8125 36.01875 393.64062 36.909374Q392.48438 37.784374 390.67188 37.784374Q388.40625 37.784374 387.0625 36.39375Q385.73438 34.9875 385.73438 32.45625Q385.73438 29.83125 387.07812 28.39375Q388.42188 26.940624 390.57812 26.940624Q392.65625 26.940624 393.96875 28.3625Q395.29688 29.76875 395.29688 32.346874Q395.29688 32.503124 395.28125 32.815624L387.54688 32.815624Q387.64062 34.51875 388.51562 35.425Q389.39062 36.33125 390.6875 36.33125Q391.65625 36.33125 392.32812 35.83125Q393.01562 35.315624 393.42188 34.20625ZM387.64062 31.3625L393.4375 31.3625Q393.32812 30.065624 392.78125 29.409374Q391.9375 28.39375 390.59375 28.39375Q389.39062 28.39375 388.5625 29.20625Q387.73438 30.003124 387.64062 31.3625Z" fill-rule="nonzero"/></svg>