<svg version="1.1" viewBox="0.0 0.0 600.0 371.0" fill="none" stroke="none" stroke-linecap="square" stroke-miterlimit="10" width="600" height="371" xmlns:xlink="http://www.w3.org/1999/xlink" xmlns="http://www.w3.org/2000/svg"><path fill="#282c34" d="M0 0L600.0 0L600.0 371.0L0 371.0L0 0Z" fill-rule="nonzero"/><path fill="#ff6f31" d="M183.68953 110.92883C211.91702 75.53269 254.72664 54.916668 300.0 54.916668L300.0 203.68333Z" fill-rule="nonzero"/><path fill="#004561" d="M183.68953 296.43784C140.4146 242.17278 140.4146 165.1939 183.68953 110.92883L300.0 203.68333Z" fill-rule="nonzero"/><path fill="#5891ad" d="M300.0 54.916668C369.40762 54.916668 429.59213 102.91222 445.03677 170.57964C460.4814 238.24706 427.08154 307.60263 364.54742 337.71747C302.01334 367.8323 226.96448 350.70288 183.68953 296.43784L300.0 203.68333Z" fill-rule="nonzero"/><path stroke="#ffffff" stroke-width="1.0" stroke-linejoin="round" stroke-linecap="round" d="M300.0 203.68333L300.0 54.916668C369.40762 54.916668 429.59213 102.91222 445.03677 170.57964C460.4814 238.24706 427.08154 307.60263 364.54742 337.71747C302.01334 367.8323 226.96448 350.70288 183.68953 296.43784" fill-rule="nonzero"/><path stroke="#ffffff" stroke-width="1.0" stroke-linejoin="round" stroke-linecap="round" d="M300.0 203.68333L183.68953 296.43784C140.4146 242.17278 140.4146 165.1939 183.68953 110.92883" fill-rule="nonzero"/><path stroke="#ffffff" stroke-width="1.0" stroke-linejoin="round" stroke-linecap="round" d="M300.0 203.68333L183.68953 110.92883C211.91702 75.53269 254.72664 54.916668 300.0 54.916668" fill-rule="nonzero"/><path fill="#ffffff" d="M19.503124 71.85091L19.503124 63.257156L25.70625 63.257156L25.70625 64.27278L20.64375 64.27278L20.64375 66.89778L25.39375 66.89778L25.39375 67.91341L20.64375 67.91341L20.64375 70.83528L25.909374 70.83528L25.909374 71.85091L19.503124 71.85091ZM27.346874 71.85091L27.346874 65.63216L28.284374 65.63216L28.284374 66.50716Q28.971874 65.49153 30.26875 65.49153Q30.83125 65.49153 31.3 65.69466Q31.784374 65.89778 32.01875 66.22591Q32.253124 66.55403 32.346874 66.99153Q32.39375 67.28841 32.39375 68.02278L32.39375 71.85091L31.346874 71.85091L31.346874 68.06966Q31.346874 67.41341 31.221874 67.10091Q31.096874 66.78841 30.784374 66.60091Q30.471874 66.39778 30.05 66.39778Q29.378124 66.39778 28.878124 66.83528Q28.39375 67.25716 28.39375 68.44466L28.39375 71.85091L27.346874 71.85091ZM36.64375 70.91341L36.8 71.83528Q36.346874 71.92903 36.003124 71.92903Q35.425 71.92903 35.1125 71.75716Q34.8 71.56966 34.659374 71.27278Q34.534374 70.97591 34.534374 70.02278L34.534374 66.44466L33.76875 66.44466L33.76875 65.63216L34.534374 65.63216L34.534374 64.08528L35.58125 63.46028L35.58125 65.63216L36.64375 65.63216L36.64375 66.44466L35.58125 66.44466L35.58125 70.08528Q35.58125 70.53841 35.628124 70.66341Q35.690624 70.78841 35.815624 70.86653Q35.940624 70.94466 36.175 70.94466Q36.3625 70.94466 36.64375 70.91341ZM41.596874 69.85091L42.690624 69.97591Q42.440624 70.92903 41.7375 71.46028Q41.034374 71.99153 39.95625 71.99153Q38.596874 71.99153 37.784374 71.14778Q36.9875 70.30403 36.9875 68.78841Q36.9875 67.22591 37.8 66.36653Q38.6125 65.49153 39.89375 65.49153Q41.14375 65.49153 41.925 66.33528Q42.721874 67.17903 42.721874 68.72591Q42.721874 68.81966 42.721874 69.00716L38.08125 69.00716Q38.14375 70.03841 38.659374 70.58528Q39.175 71.11653 39.95625 71.11653Q40.534374 71.11653 40.940624 70.81966Q41.3625 70.50716 41.596874 69.85091ZM38.14375 68.14778L41.6125 68.14778Q41.55 67.35091 41.221874 66.96028Q40.70625 66.35091 39.909374 66.35091Q39.175 66.35091 38.675 66.83528Q38.190624 67.31966 38.14375 68.14778ZM44.33125 71.85091L44.33125 65.63216L45.284374 65.63216L45.284374 66.56966Q45.64375 65.91341 45.940624 65.71028Q46.253124 65.49153 46.628124 65.49153Q47.159374 65.49153 47.70625 65.81966L47.346874 66.80403Q46.95625 66.56966 46.58125 66.56966Q46.221874 66.56966 45.940624 66.78841Q45.675 66.99153 45.565624 67.36653Q45.378124 67.92903 45.378124 68.58528L45.378124 71.85091L44.33125 71.85091ZM48.346874 74.24153L48.346874 65.63216L49.3 65.63216L49.3 66.42903Q49.64375 65.96028 50.065624 65.72591Q50.503124 65.49153 51.1125 65.49153Q51.909374 65.49153 52.51875 65.89778Q53.128124 66.30403 53.425 67.05403Q53.7375 67.80403 53.7375 68.69466Q53.7375 69.64778 53.39375 70.41341Q53.065624 71.17903 52.409374 71.58528Q51.753124 71.99153 51.034374 71.99153Q50.503124 71.99153 50.08125 71.77278Q49.659374 71.53841 49.39375 71.21028L49.39375 74.24153L48.346874 74.24153ZM49.3 68.77278Q49.3 69.97591 49.784374 70.55403Q50.26875 71.11653 50.95625 71.11653Q51.659374 71.11653 52.159374 70.52278Q52.659374 69.92903 52.659374 68.67903Q52.659374 67.49153 52.175 66.91341Q51.690624 66.31966 51.003124 66.31966Q50.33125 66.31966 49.815624 66.94466Q49.3 67.56966 49.3 68.77278ZM55.33125 71.85091L55.33125 65.63216L56.284374 65.63216L56.284374 66.56966Q56.64375 65.91341 56.940624 65.71028Q57.253124 65.49153 57.628124 65.49153Q58.159374 65.49153 58.70625 65.81966L58.346874 66.80403Q57.95625 66.56966 57.58125 66.56966Q57.221874 66.56966 56.940624 66.78841Q56.675 66.99153 56.565624 67.36653Q56.378124 67.92903 56.378124 68.58528L56.378124 71.85091L55.33125 71.85091ZM59.346874 64.47591L59.346874 63.257156L60.409374 63.257156L60.409374 64.47591L59.346874 64.47591ZM59.346874 71.85091L59.346874 65.63216L60.409374 65.63216L60.409374 71.85091L59.346874 71.85091ZM61.925 69.99153L62.95625 69.83528Q63.05 70.46028 63.440624 70.78841Q63.846874 71.11653 64.58125 71.11653Q65.3 71.11653 65.64375 70.83528Q66.00313 70.53841 66.00313 70.13216Q66.00313 69.77278 65.69063 69.56966Q65.47188 69.42903 64.6125 69.21028Q63.45625 68.91341 63.003124 68.71028Q62.565624 68.49153 62.33125 68.11653Q62.096874 67.74153 62.096874 67.27278Q62.096874 66.86653 62.284374 66.50716Q62.471874 66.14778 62.8 65.91341Q63.05 65.74153 63.471874 65.61653Q63.89375 65.49153 64.39375 65.49153Q65.1125 65.49153 65.65938 65.71028Q66.22188 65.91341 66.4875 66.27278Q66.75313 66.63216 66.84688 67.22591L65.81563 67.36653Q65.75313 66.89778 65.40938 66.63216Q65.08125 66.35091 64.45625 66.35091Q63.7375 66.35091 63.425 66.60091Q63.1125 66.83528 63.1125 67.16341Q63.1125 67.36653 63.2375 67.52278Q63.378124 67.69466 63.64375 67.80403Q63.8 67.86653 64.58125 68.06966Q65.70625 68.38216 66.14375 68.56966Q66.58125 68.75716 66.83125 69.11653Q67.08125 69.47591 67.08125 70.02278Q67.08125 70.55403 66.76875 71.02278Q66.47188 71.47591 65.89375 71.74153Q65.31563 71.99153 64.58125 71.99153Q63.3625 71.99153 62.721874 71.49153Q62.096874 70.97591 61.925 69.99153ZM73.59688 69.85091L74.69063 69.97591Q74.44063 70.92903 73.7375 71.46028Q73.03438 71.99153 71.95625 71.99153Q70.59688 71.99153 69.78438 71.14778Q68.9875 70.30403 68.9875 68.78841Q68.9875 67.22591 69.8 66.36653Q70.6125 65.49153 71.89375 65.49153Q73.14375 65.49153 73.925 66.33528Q74.72188 67.17903 74.72188 68.72591Q74.72188 68.81966 74.72188 69.00716L70.08125 69.00716Q70.14375 70.03841 70.65938 70.58528Q71.175 71.11653 71.95625 71.11653Q72.53438 71.11653 72.94063 70.81966Q73.3625 70.50716 73.59688 69.85091ZM70.14375 68.14778L73.6125 68.14778Q73.55 67.35091 73.22188 66.96028Q72.70625 66.35091 71.90938 66.35091Q71.175 66.35091 70.675 66.83528Q70.19063 67.31966 70.14375 68.14778Z" fill-rule="nonzero"/><path fill="#8b8d91" d="M23.01875 88.85091L21.971874 88.85091L21.971874 82.13216Q21.58125 82.49153 20.95625 82.86653Q20.346874 83.22591 19.8625 83.39778L19.8625 82.38216Q20.7375 81.96028 21.39375 81.38216Q22.065624 80.78841 22.346874 80.22591L23.01875 80.22591L23.01875 88.85091ZM29.425 88.85091L29.425 86.78841L25.70625 86.78841L25.70625 85.81966L29.628124 80.25716L30.4875 80.25716L30.4875 85.81966L31.64375 85.81966L31.64375 86.78841L30.4875 86.78841L30.4875 88.85091L29.425 88.85091ZM29.425 85.81966L29.425 81.96028L26.7375 85.81966L29.425 85.81966ZM33.64375 88.85091L33.64375 87.64778L34.846874 87.64778L34.846874 88.85091L33.64375 88.85091ZM36.05 86.58528L37.1125 86.44466Q37.284374 87.33528 37.721874 87.74153Q38.159374 88.13216 38.784374 88.13216Q39.534374 88.13216 40.05 87.61653Q40.565624 87.10091 40.565624 86.33528Q40.565624 85.61653 40.08125 85.14778Q39.6125 84.66341 38.878124 84.66341Q38.58125 84.66341 38.128124 84.78841L38.253124 83.85091Q38.3625 83.86653 38.425 83.86653Q39.096874 83.86653 39.628124 83.52278Q40.175 83.16341 40.175 82.42903Q40.175 81.85091 39.784374 81.47591Q39.39375 81.08528 38.76875 81.08528Q38.159374 81.08528 37.7375 81.47591Q37.33125 81.86653 37.221874 82.63216L36.159374 82.44466Q36.346874 81.39778 37.034374 80.81966Q37.721874 80.22591 38.7375 80.22591Q39.440624 80.22591 40.034374 80.53841Q40.628124 80.83528 40.940624 81.35091Q41.253124 81.86653 41.253124 82.46028Q41.253124 83.00716 40.95625 83.47591Q40.659374 83.92903 40.08125 84.19466Q40.83125 84.36653 41.253124 84.92903Q41.675 85.47591 41.675 86.31966Q41.675 87.44466 40.846874 88.22591Q40.034374 89.00716 38.784374 89.00716Q37.659374 89.00716 36.909374 88.33528Q36.159374 87.64778 36.05 86.58528ZM43.253124 82.31966Q43.253124 81.39778 43.70625 80.75716Q44.175 80.11653 45.05 80.11653Q45.8625 80.11653 46.39375 80.69466Q46.925 81.27278 46.925 82.38216Q46.925 83.47591 46.378124 84.06966Q45.846874 84.64778 45.065624 84.64778Q44.284374 84.64778 43.76875 84.06966Q43.253124 83.49153 43.253124 82.31966ZM45.08125 80.83528Q44.690624 80.83528 44.425 81.17903Q44.175 81.52278 44.175 82.42903Q44.175 83.25716 44.425 83.60091Q44.690624 83.92903 45.08125 83.92903Q45.4875 83.92903 45.7375 83.58528Q46.003124 83.24153 46.003124 82.35091Q46.003124 81.50716 45.7375 81.17903Q45.471874 80.83528 45.08125 80.83528ZM45.08125 89.16341L49.784374 80.11653L50.64375 80.11653L45.95625 89.16341L45.08125 89.16341ZM48.8 86.83528Q48.8 85.91341 49.253124 85.27278Q49.721874 84.63216 50.6125 84.63216Q51.425 84.63216 51.95625 85.21028Q52.4875 85.77278 52.4875 86.89778Q52.4875 87.99153 51.940624 88.58528Q51.409374 89.16341 50.6125 89.16341Q49.846874 89.16341 49.315624 88.58528Q48.8 88.00716 48.8 86.83528ZM50.64375 85.35091Q50.2375 85.35091 49.971874 85.69466Q49.721874 86.03841 49.721874 86.94466Q49.721874 87.75716 49.9875 88.10091Q50.253124 88.44466 50.64375 88.44466Q51.034374 88.44466 51.3 88.10091Q51.565624 87.75716 51.565624 86.85091Q51.565624 86.02278 51.3 85.69466Q51.034374 85.35091 50.64375 85.35091Z" fill-rule="nonzero"/><path stroke="#b4b6b9" stroke-width="1.0" stroke-linecap="butt" d="M18.55 76.35091L145.23334 76.35091L238.67993 76.35091" fill-rule="nonzero"/><path fill="#8b8d91" d="M240.67993 76.35091C240.67993 75.24634 239.7845 74.35091 238.67993 74.35091C237.57536 74.35091 236.67993 75.24634 236.67993 76.35091C236.67993 77.455475 237.57536 78.35091 238.67993 78.35091C239.7845 78.35091 240.67993 77.455475 240.67993 76.35091" fill-rule="nonzero"/><path fill="#ffffff" d="M19.440624 199.18333L19.440624 190.58958L21.159374 190.58958L23.190624 196.66771Q23.471874 197.52708 23.596874 197.94896Q23.7375 197.48021 24.05 196.57396L26.1125 190.58958L27.64375 190.58958L27.64375 199.18333L26.55 199.18333L26.55 191.99583L24.05 199.18333L23.01875 199.18333L20.534374 191.87083L20.534374 199.18333L19.440624 199.18333ZM28.346874 191.80833L28.346874 190.58958L29.409374 190.58958L29.409374 191.80833L28.346874 191.80833ZM28.346874 199.18333L28.346874 192.96458L29.409374 192.96458L29.409374 199.18333L28.346874 199.18333ZM35.378124 199.18333L35.378124 198.40208Q34.784374 199.32396 33.64375 199.32396Q32.89375 199.32396 32.26875 198.91771Q31.64375 198.49583 31.3 197.76146Q30.95625 197.02708 30.95625 196.07396Q30.95625 195.15208 31.26875 194.38646Q31.58125 193.62083 32.20625 193.23021Q32.83125 192.82396 33.596874 192.82396Q34.159374 192.82396 34.596874 193.05833Q35.034374 193.29271 35.315624 193.66771L35.315624 190.58958L36.3625 190.58958L36.3625 199.18333L35.378124 199.18333ZM32.05 196.07396Q32.05 197.27708 32.55 197.87083Q33.05 198.44896 33.7375 198.44896Q34.425 198.44896 34.909374 197.88646Q35.39375 197.32396 35.39375 196.16771Q35.39375 194.88646 34.89375 194.29271Q34.409374 193.69896 33.690624 193.69896Q32.9875 193.69896 32.51875 194.27708Q32.05 194.83958 32.05 196.07396ZM37.925 196.60521L37.925 195.54271L41.175 195.54271L41.175 196.60521L37.925 196.60521ZM42.440624 199.18333L42.440624 190.58958L44.159374 190.58958L46.190624 196.66771Q46.471874 197.52708 46.596874 197.94896Q46.7375 197.48021 47.05 196.57396L49.1125 190.58958L50.64375 190.58958L50.64375 199.18333L49.55 199.18333L49.55 191.99583L47.05 199.18333L46.01875 199.18333L43.534374 191.87083L43.534374 199.18333L42.440624 199.18333ZM55.409374 198.41771Q54.815624 198.91771 54.26875 199.12083Q53.7375 199.32396 53.1125 199.32396Q52.08125 199.32396 51.534374 198.82396Q50.9875 198.32396 50.9875 197.54271Q50.9875 197.08958 51.190624 196.71458Q51.39375 196.32396 51.7375 196.10521Q52.08125 195.87083 52.503124 195.76146Q52.8 195.66771 53.440624 195.58958Q54.70625 195.44896 55.315624 195.23021Q55.315624 195.01146 55.315624 194.96458Q55.315624 194.30833 55.01875 194.04271Q54.6125 193.69896 53.815624 193.69896Q53.08125 193.69896 52.721874 193.96458Q52.3625 194.21458 52.190624 194.87083L51.159374 194.73021Q51.3 194.07396 51.628124 193.66771Q51.95625 193.26146 52.565624 193.04271Q53.175 192.82396 53.971874 192.82396Q54.76875 192.82396 55.26875 193.01146Q55.76875 193.19896 56.003124 193.48021Q56.2375 193.76146 56.33125 194.19896Q56.378124 194.46458 56.378124 195.16771L56.378124 196.57396Q56.378124 198.04271 56.440624 198.43333Q56.51875 198.82396 56.721874 199.18333L55.6125 199.18333Q55.45625 198.85521 55.409374 198.41771ZM55.315624 196.05833Q54.7375 196.29271 53.596874 196.46458Q52.940624 196.55833 52.675 196.68333Q52.409374 196.79271 52.253124 197.01146Q52.1125 197.23021 52.1125 197.51146Q52.1125 197.93333 52.425 198.21458Q52.753124 198.49583 53.3625 198.49583Q53.971874 198.49583 54.440624 198.23021Q54.925 197.96458 55.14375 197.49583Q55.315624 197.13646 55.315624 196.44896L55.315624 196.05833ZM58.33125 199.18333L58.33125 192.96458L59.284374 192.96458L59.284374 193.90208Q59.64375 193.24583 59.940624 193.04271Q60.253124 192.82396 60.628124 192.82396Q61.159374 192.82396 61.70625 193.15208L61.346874 194.13646Q60.95625 193.90208 60.58125 193.90208Q60.221874 193.90208 59.940624 194.12083Q59.675 194.32396 59.565624 194.69896Q59.378124 195.26146 59.378124 195.91771L59.378124 199.18333L58.33125 199.18333ZM62.346874 199.18333L62.346874 190.58958L63.409374 190.58958L63.409374 195.49583L65.89375 192.96458L67.26875 192.96458L64.87813 195.26146L67.50313 199.18333L66.20625 199.18333L64.14375 195.99583L63.409374 196.71458L63.409374 199.18333L62.346874 199.18333ZM72.59688 197.18333L73.69063 197.30833Q73.44063 198.26146 72.7375 198.79271Q72.03438 199.32396 70.95625 199.32396Q69.59688 199.32396 68.78438 198.48021Q67.9875 197.63646 67.9875 196.12083Q67.9875 194.55833 68.8 193.69896Q69.6125 192.82396 70.89375 192.82396Q72.14375 192.82396 72.925 193.66771Q73.72188 194.51146 73.72188 196.05833Q73.72188 196.15208 73.72188 196.33958L69.08125 196.33958Q69.14375 197.37083 69.65938 197.91771Q70.175 198.44896 70.95625 198.44896Q71.53438 198.44896 71.94063 198.15208Q72.3625 197.83958 72.59688 197.18333ZM69.14375 195.48021L72.6125 195.48021Q72.55 194.68333 72.22188 194.29271Q71.70625 193.68333 70.90938 193.68333Q70.175 193.68333 69.675 194.16771Q69.19063 194.65208 69.14375 195.48021ZM77.64375 198.24583L77.8 199.16771Q77.34688 199.26146 77.00313 199.26146Q76.425 199.26146 76.1125 199.08958Q75.8 198.90208 75.65938 198.60521Q75.53438 198.30833 75.53438 197.35521L75.53438 193.77708L74.76875 193.77708L74.76875 192.96458L75.53438 192.96458L75.53438 191.41771L76.58125 190.79271L76.58125 192.96458L77.64375 192.96458L77.64375 193.77708L76.58125 193.77708L76.58125 197.41771Q76.58125 197.87083 76.62813 197.99583Q76.69063 198.12083 76.81563 198.19896Q76.94063 198.27708 77.175 198.27708Q77.3625 198.27708 77.64375 198.24583Z" fill-rule="nonzero"/><path fill="#8b8d91" d="M24.596874 215.16771L24.596874 216.18333L18.909374 216.18333Q18.909374 215.80833 19.034374 215.44896Q19.253124 214.87083 19.721874 214.30833Q20.20625 213.74583 21.1125 213.01146Q22.51875 211.85521 23.003124 211.18333Q23.503124 210.51146 23.503124 209.91771Q23.503124 209.29271 23.05 208.87083Q22.596874 208.43333 21.878124 208.43333Q21.1125 208.43333 20.659374 208.88646Q20.20625 209.33958 20.190624 210.15208L19.1125 210.04271Q19.221874 208.82396 19.940624 208.19896Q20.675 207.55833 21.909374 207.55833Q23.14375 207.55833 23.8625 208.24583Q24.58125 208.93333 24.58125 209.94896Q24.58125 210.46458 24.3625 210.96458Q24.159374 211.44896 23.659374 212.01146Q23.175 212.55833 22.05 213.51146Q21.096874 214.30833 20.815624 214.60521Q20.55 214.88646 20.378124 215.16771L24.596874 215.16771ZM30.01875 216.18333L28.971874 216.18333L28.971874 209.46458Q28.58125 209.82396 27.95625 210.19896Q27.346874 210.55833 26.8625 210.73021L26.8625 209.71458Q27.7375 209.29271 28.39375 208.71458Q29.065624 208.12083 29.346874 207.55833L30.01875 207.55833L30.01875 216.18333ZM33.64375 216.18333L33.64375 214.98021L34.846874 214.98021L34.846874 216.18333L33.64375 216.18333ZM39.425 216.18333L39.425 214.12083L35.70625 214.12083L35.70625 213.15208L39.628124 207.58958L40.4875 207.58958L40.4875 213.15208L41.64375 213.15208L41.64375 214.12083L40.4875 214.12083L40.4875 216.18333L39.425 216.18333ZM39.425 213.15208L39.425 209.29271L36.7375 213.15208L39.425 213.15208ZM43.253124 209.65208Q43.253124 208.73021 43.70625 208.08958Q44.175 207.44896 45.05 207.44896Q45.8625 207.44896 46.39375 208.02708Q46.925 208.60521 46.925 209.71458Q46.925 210.80833 46.378124 211.40208Q45.846874 211.98021 45.065624 211.98021Q44.284374 211.98021 43.76875 211.40208Q43.253124 210.82396 43.253124 209.65208ZM45.08125 208.16771Q44.690624 208.16771 44.425 208.51146Q44.175 208.85521 44.175 209.76146Q44.175 210.58958 44.425 210.93333Q44.690624 211.26146 45.08125 211.26146Q45.4875 211.26146 45.7375 210.91771Q46.003124 210.57396 46.003124 209.68333Q46.003124 208.83958 45.7375 208.51146Q45.471874 208.16771 45.08125 208.16771ZM45.08125 216.49583L49.784374 207.44896L50.64375 207.44896L45.95625 216.49583L45.08125 216.49583ZM48.8 214.16771Q48.8 213.24583 49.253124 212.60521Q49.721874 211.96458 50.6125 211.96458Q51.425 211.96458 51.95625 212.54271Q52.4875 213.10521 52.4875 214.23021Q52.4875 215.32396 51.940624 215.91771Q51.409374 216.49583 50.6125 216.49583Q49.846874 216.49583 49.315624 215.91771Q48.8 215.33958 48.8 214.16771ZM50.64375 212.68333Q50.2375 212.68333 49.971874 213.02708Q49.721874 213.37083 49.721874 214.27708Q49.721874 215.08958 49.9875 215.43333Q50.253124 215.77708 50.64375 215.77708Q51.034374 215.77708 51.3 215.43333Q51.565624 215.08958 51.565624 214.18333Q51.565624 213.35521 51.3 213.02708Q51.034374 212.68333 50.64375 212.68333Z" fill-rule="nonzero"/><path stroke="#b4b6b9" stroke-width="1.0" stroke-linecap="butt" d="M18.55 203.68333L145.23334 203.68333L158.67166 203.68333" fill-rule="nonzero"/><path fill="#8b8d91" d="M160.67166 203.68333C160.67166 202.57877 159.77623 201.68333 158.67166 201.68333C157.5671 201.68333 156.67166 202.57877 156.67166 203.68333C156.67166 204.7879 157.5671 205.68333 158.67166 205.68333C159.77623 205.68333 160.67166 204.7879 160.67166 203.68333" fill-rule="nonzero"/><path fill="#ffffff" d="M478.9969 257.73776L480.0594 257.644Q480.1375 258.30026 480.41876 258.7065Q480.7 259.11276 481.27814 259.3784Q481.8719 259.6284 482.60626 259.6284Q483.2469 259.6284 483.7469 259.4409Q484.2469 259.23776 484.48126 258.90964Q484.73126 258.5659 484.73126 258.17526Q484.73126 257.769 484.4969 257.47214Q484.2625 257.15964 483.73126 256.9565Q483.3719 256.8159 482.1844 256.53464Q481.0125 256.2534 480.54376 256.0034Q479.91876 255.67526 479.6219 255.20651Q479.325 254.72214 479.325 254.12839Q479.325 253.48776 479.6844 252.92526Q480.0594 252.34714 480.7625 252.06589Q481.48126 251.76901 482.34064 251.76901Q483.29376 251.76901 484.02814 252.08151Q484.7625 252.37839 485.15314 252.98776Q485.54376 253.58151 485.575 254.33151L484.48126 254.40964Q484.3875 253.59714 483.8719 253.19089Q483.3719 252.76901 482.3875 252.76901Q481.35626 252.76901 480.8875 253.14401Q480.41876 253.51901 480.41876 254.05026Q480.41876 254.51901 480.7469 254.81589Q481.075 255.11276 482.45 255.42526Q483.84064 255.73776 484.35626 255.97214Q485.10626 256.3315 485.46564 256.86276Q485.825 257.3784 485.825 258.0815Q485.825 258.769 485.4344 259.3784Q485.04376 259.97214 484.3094 260.3159Q483.575 260.644 482.65314 260.644Q481.48126 260.644 480.6844 260.3159Q479.90314 259.97214 479.45 259.28464Q479.0125 258.59714 478.9969 257.73776ZM487.2469 260.5034L487.2469 254.28464L488.1844 254.28464L488.1844 255.15964Q488.48126 254.69089 488.96564 254.42526Q489.45 254.14401 490.075 254.14401Q490.7625 254.14401 491.2 254.42526Q491.65314 254.70651 491.825 255.22214Q492.575 254.14401 493.7469 254.14401Q494.6844 254.14401 495.16876 254.65964Q495.66876 255.15964 495.66876 256.23776L495.66876 260.5034L494.6219 260.5034L494.6219 256.5815Q494.6219 255.95651 494.5125 255.67526Q494.41876 255.39401 494.15314 255.22214Q493.8875 255.05026 493.5125 255.05026Q492.85626 255.05026 492.41876 255.48776Q491.9969 255.92526 491.9969 256.894L491.9969 260.5034L490.9344 260.5034L490.9344 256.4565Q490.9344 255.75339 490.66876 255.40964Q490.41876 255.05026 489.84064 255.05026Q489.3875 255.05026 489.0125 255.28464Q488.6375 255.51901 488.46564 255.97214Q488.29376 256.42526 488.29376 257.269L488.29376 260.5034L487.2469 260.5034ZM502.3094 259.73776Q501.71564 260.23776 501.16876 260.4409Q500.6375 260.644 500.0125 260.644Q498.98126 260.644 498.4344 260.144Q497.8875 259.644 497.8875 258.86276Q497.8875 258.40964 498.09064 258.03464Q498.29376 257.644 498.6375 257.42526Q498.98126 257.1909 499.40314 257.0815Q499.7 256.98776 500.34064 256.90964Q501.60626 256.769 502.21564 256.55026Q502.21564 256.3315 502.21564 256.28464Q502.21564 255.62839 501.91876 255.36276Q501.5125 255.01901 500.71564 255.01901Q499.98126 255.01901 499.6219 255.28464Q499.2625 255.53464 499.09064 256.1909L498.0594 256.05026Q498.2 255.39401 498.52814 254.98776Q498.85626 254.58151 499.46564 254.36276Q500.075 254.14401 500.8719 254.14401Q501.66876 254.14401 502.16876 254.33151Q502.66876 254.51901 502.90314 254.80026Q503.1375 255.08151 503.23126 255.51901Q503.27814 255.78464 503.27814 256.48776L503.27814 257.894Q503.27814 259.36276 503.34064 259.7534Q503.41876 260.144 503.6219 260.5034L502.5125 260.5034Q502.35626 260.17526 502.3094 259.73776ZM502.21564 257.3784Q501.6375 257.61276 500.4969 257.78464Q499.84064 257.8784 499.575 258.0034Q499.3094 258.11276 499.15314 258.3315Q499.0125 258.55026 499.0125 258.8315Q499.0125 259.2534 499.325 259.53464Q499.65314 259.8159 500.2625 259.8159Q500.8719 259.8159 501.34064 259.55026Q501.825 259.28464 502.04376 258.8159Q502.21564 258.4565 502.21564 257.769L502.21564 257.3784ZM505.21564 260.5034L505.21564 251.90964L506.27814 251.90964L506.27814 260.5034L505.21564 260.5034ZM508.21564 260.5034L508.21564 251.90964L509.27814 251.90964L509.27814 260.5034L508.21564 260.5034ZM510.825 257.92526L510.825 256.86276L514.075 256.86276L514.075 257.92526L510.825 257.92526ZM515.325 260.5034L515.325 251.90964L518.5594 251.90964Q519.54376 251.90964 520.1375 252.17526Q520.73126 252.44089 521.0594 252.98776Q521.40314 253.51901 521.40314 254.11276Q521.40314 254.65964 521.10626 255.14401Q520.8094 255.62839 520.2 255.92526Q520.98126 256.15964 521.3875 256.72214Q521.8094 257.269 521.8094 258.019Q521.8094 258.61276 521.5594 259.144Q521.3094 259.65964 520.9344 259.9409Q520.5594 260.22214 519.98126 260.36276Q519.41876 260.5034 518.60626 260.5034L515.325 260.5034ZM516.46564 255.51901L518.325 255.51901Q519.075 255.51901 519.40314 255.42526Q519.84064 255.30026 520.0594 255.00339Q520.27814 254.69089 520.27814 254.23776Q520.27814 253.81589 520.075 253.48776Q519.8719 253.15964 519.48126 253.05026Q519.10626 252.92526 518.1844 252.92526L516.46564 252.92526L516.46564 255.51901ZM516.46564 259.48776L518.60626 259.48776Q519.15314 259.48776 519.3719 259.4409Q519.77814 259.3784 520.02814 259.22214Q520.29376 259.05026 520.46564 258.73776Q520.6375 258.42526 520.6375 258.019Q520.6375 257.53464 520.3875 257.17526Q520.15314 256.8159 519.71564 256.67526Q519.27814 256.53464 518.45 256.53464L516.46564 256.53464L516.46564 259.48776ZM527.325 260.5034L527.325 259.5815Q526.59064 260.644 525.34064 260.644Q524.79376 260.644 524.3094 260.4409Q523.84064 260.22214 523.60626 259.90964Q523.3719 259.5815 523.27814 259.11276Q523.21564 258.8159 523.21564 258.1284L523.21564 254.28464L524.27814 254.28464L524.27814 257.73776Q524.27814 258.55026 524.34064 258.84714Q524.4344 259.2534 524.7469 259.5034Q525.075 259.73776 525.5594 259.73776Q526.02814 259.73776 526.4344 259.5034Q526.85626 259.2534 527.02814 258.8315Q527.21564 258.40964 527.21564 257.61276L527.21564 254.28464L528.2625 254.28464L528.2625 260.5034L527.325 260.5034ZM529.825 258.644L530.85626 258.48776Q530.95 259.11276 531.34064 259.4409Q531.7469 259.769 532.48126 259.769Q533.2 259.769 533.54376 259.48776Q533.90314 259.1909 533.90314 258.78464Q533.90314 258.42526 533.59064 258.22214Q533.3719 258.0815 532.5125 257.86276Q531.35626 257.5659 530.90314 257.36276Q530.46564 257.144 530.23126 256.769Q529.9969 256.394 529.9969 255.92526Q529.9969 255.51901 530.1844 255.15964Q530.3719 254.80026 530.7 254.56589Q530.95 254.39401 531.3719 254.26901Q531.79376 254.14401 532.29376 254.14401Q533.0125 254.14401 533.5594 254.36276Q534.1219 254.56589 534.3875 254.92526Q534.65314 255.28464 534.7469 255.87839L533.71564 256.019Q533.65314 255.55026 533.3094 255.28464Q532.98126 255.00339 532.35626 255.00339Q531.6375 255.00339 531.325 255.25339Q531.0125 255.48776 531.0125 255.81589Q531.0125 256.019 531.1375 256.17526Q531.27814 256.34714 531.54376 256.4565Q531.7 256.519 532.48126 256.72214Q533.60626 257.03464 534.04376 257.22214Q534.48126 257.40964 534.73126 257.769Q534.98126 258.1284 534.98126 258.67526Q534.98126 259.2065 534.66876 259.67526Q534.3719 260.1284 533.79376 260.394Q533.21564 260.644 532.48126 260.644Q531.2625 260.644 530.6219 260.144Q529.9969 259.6284 529.825 258.644ZM537.2469 253.12839L537.2469 251.90964L538.3094 251.90964L538.3094 253.12839L537.2469 253.12839ZM537.2469 260.5034L537.2469 254.28464L538.3094 254.28464L538.3094 260.5034L537.2469 260.5034ZM540.2469 260.5034L540.2469 254.28464L541.1844 254.28464L541.1844 255.15964Q541.8719 254.14401 543.16876 254.14401Q543.73126 254.14401 544.2 254.34714Q544.6844 254.55026 544.91876 254.87839Q545.15314 255.20651 545.2469 255.64401Q545.29376 255.94089 545.29376 256.67526L545.29376 260.5034L544.2469 260.5034L544.2469 256.72214Q544.2469 256.0659 544.1219 255.75339Q543.9969 255.44089 543.6844 255.25339Q543.3719 255.05026 542.95 255.05026Q542.27814 255.05026 541.77814 255.48776Q541.29376 255.90964 541.29376 257.09714L541.29376 260.5034L540.2469 260.5034ZM551.4969 258.5034L552.59064 258.6284Q552.34064 259.5815 551.6375 260.11276Q550.9344 260.644 549.85626 260.644Q548.4969 260.644 547.6844 259.80026Q546.8875 258.9565 546.8875 257.4409Q546.8875 255.87839 547.7 255.01901Q548.5125 254.14401 549.79376 254.14401Q551.04376 254.14401 551.825 254.98776Q552.6219 255.83151 552.6219 257.3784Q552.6219 257.47214 552.6219 257.65964L547.98126 257.65964Q548.04376 258.6909 548.5594 259.23776Q549.075 259.769 549.85626 259.769Q550.4344 259.769 550.84064 259.47214Q551.2625 259.15964 551.4969 258.5034ZM548.04376 256.80026L551.5125 256.80026Q551.45 256.0034 551.1219 255.61276Q550.60626 255.00339 549.8094 255.00339Q549.075 255.00339 548.575 255.48776Q548.09064 255.97214 548.04376 256.80026ZM553.825 258.644L554.85626 258.48776Q554.95 259.11276 555.34064 259.4409Q555.7469 259.769 556.48126 259.769Q557.2 259.769 557.54376 259.48776Q557.90314 259.1909 557.90314 258.78464Q557.90314 258.42526 557.59064 258.22214Q557.3719 258.0815 556.5125 257.86276Q555.35626 257.5659 554.90314 257.36276Q554.46564 257.144 554.23126 256.769Q553.9969 256.394 553.9969 255.92526Q553.9969 255.51901 554.1844 255.15964Q554.3719 254.80026 554.7 254.56589Q554.95 254.39401 555.3719 254.26901Q555.79376 254.14401 556.29376 254.14401Q557.0125 254.14401 557.5594 254.36276Q558.1219 254.56589 558.3875 254.92526Q558.65314 255.28464 558.7469 255.87839L557.71564 256.019Q557.65314 255.55026 557.3094 255.28464Q556.98126 255.00339 556.35626 255.00339Q555.6375 255.00339 555.325 255.25339Q555.0125 255.48776 555.0125 255.81589Q555.0125 256.019 555.1375 256.17526Q555.27814 256.34714 555.54376 256.4565Q555.7 256.519 556.48126 256.72214Q557.60626 257.03464 558.04376 257.22214Q558.48126 257.40964 558.73126 257.769Q558.98126 258.1284 558.98126 258.67526Q558.98126 259.2065 558.66876 259.67526Q558.3719 260.1284 557.79376 260.394Q557.21564 260.644 556.48126 260.644Q555.2625 260.644 554.6219 260.144Q553.9969 259.6284 553.825 258.644ZM560.825 258.644L561.85626 258.48776Q561.95 259.11276 562.34064 259.4409Q562.7469 259.769 563.48126 259.769Q564.2 259.769 564.54376 259.48776Q564.90314 259.1909 564.90314 258.78464Q564.90314 258.42526 564.59064 258.22214Q564.3719 258.0815 563.5125 257.86276Q562.35626 257.5659 561.90314 257.36276Q561.46564 257.144 561.23126 256.769Q560.9969 256.394 560.9969 255.92526Q560.9969 255.51901 561.1844 255.15964Q561.3719 254.80026 561.7 254.56589Q561.95 254.39401 562.3719 254.26901Q562.79376 254.14401 563.29376 254.14401Q564.0125 254.14401 564.5594 254.36276Q565.1219 254.56589 565.3875 254.92526Q565.65314 255.28464 565.7469 255.87839L564.71564 256.019Q564.65314 255.55026 564.3094 255.28464Q563.98126 255.00339 563.35626 255.00339Q562.6375 255.00339 562.325 255.25339Q562.0125 255.48776 562.0125 255.81589Q562.0125 256.019 562.1375 256.17526Q562.27814 256.34714 562.54376 256.4565Q562.7 256.519 563.48126 256.72214Q564.60626 257.03464 565.04376 257.22214Q565.48126 257.40964 565.73126 257.769Q565.98126 258.1284 565.98126 258.67526Q565.98126 259.2065 565.66876 259.67526Q565.3719 260.1284 564.79376 260.394Q564.21564 260.644 563.48126 260.644Q562.2625 260.644 561.6219 260.144Q560.9969 259.6284 560.825 258.644ZM572.4969 258.5034L573.59064 258.6284Q573.34064 259.5815 572.6375 260.11276Q571.9344 260.644 570.85626 260.644Q569.4969 260.644 568.6844 259.80026Q567.8875 258.9565 567.8875 257.4409Q567.8875 255.87839 568.7 255.01901Q569.5125 254.14401 570.79376 254.14401Q572.04376 254.14401 572.825 254.98776Q573.6219 255.83151 573.6219 257.3784Q573.6219 257.47214 573.6219 257.65964L568.98126 257.65964Q569.04376 258.6909 569.5594 259.23776Q570.075 259.769 570.85626 259.769Q571.4344 259.769 571.84064 259.47214Q572.2625 259.15964 572.4969 258.5034ZM569.04376 256.80026L572.5125 256.80026Q572.45 256.0034 572.1219 255.61276Q571.60626 255.00339 570.8094 255.00339Q570.075 255.00339 569.575 255.48776Q569.09064 255.97214 569.04376 256.80026ZM574.825 258.644L575.85626 258.48776Q575.95 259.11276 576.34064 259.4409Q576.7469 259.769 577.48126 259.769Q578.2 259.769 578.54376 259.48776Q578.90314 259.1909 578.90314 258.78464Q578.90314 258.42526 578.59064 258.22214Q578.3719 258.0815 577.5125 257.86276Q576.35626 257.5659 575.90314 257.36276Q575.46564 257.144 575.23126 256.769Q574.9969 256.394 574.9969 255.92526Q574.9969 255.51901 575.1844 255.15964Q575.3719 254.80026 575.7 254.56589Q575.95 254.39401 576.3719 254.26901Q576.79376 254.14401 577.29376 254.14401Q578.0125 254.14401 578.5594 254.36276Q579.1219 254.56589 579.3875 254.92526Q579.65314 255.28464 579.7469 255.87839L578.71564 256.019Q578.65314 255.55026 578.3094 255.28464Q577.98126 255.00339 577.35626 255.00339Q576.6375 255.00339 576.325 255.25339Q576.0125 255.48776 576.0125 255.81589Q576.0125 256.019 576.1375 256.17526Q576.27814 256.34714 576.54376 256.4565Q576.7 256.519 577.48126 256.72214Q578.60626 257.03464 579.04376 257.22214Q579.48126 257.40964 579.73126 257.769Q579.98126 258.1284 579.98126 258.67526Q579.98126 259.2065 579.66876 259.67526Q579.3719 260.1284 578.79376 260.394Q578.21564 260.644 577.48126 260.644Q576.2625 260.644 575.6219 260.144Q574.9969 259.6284 574.825 258.644Z" fill-rule="nonzero"/><path fill="#8b8d91" d="M552.41876 271.019L551.3719 271.09714Q551.23126 270.47214 550.98126 270.1909Q550.54376 269.73776 549.91876 269.73776Q549.41876 269.73776 549.02814 270.019Q548.54376 270.394 548.2469 271.09714Q547.96564 271.78464 547.95 273.0659Q548.325 272.48776 548.8719 272.2065Q549.4344 271.92526 550.04376 271.92526Q551.09064 271.92526 551.825 272.7065Q552.575 273.48776 552.575 274.7065Q552.575 275.519 552.21564 276.22214Q551.8719 276.90964 551.2625 277.28464Q550.65314 277.644 549.8875 277.644Q548.5594 277.644 547.73126 276.67526Q546.90314 275.7065 546.90314 273.48776Q546.90314 270.98776 547.825 269.86276Q548.6219 268.8784 549.98126 268.8784Q550.9969 268.8784 551.6375 269.4565Q552.29376 270.019 552.41876 271.019ZM548.1219 274.72214Q548.1219 275.269 548.34064 275.769Q548.575 276.2534 548.98126 276.519Q549.40314 276.78464 549.8719 276.78464Q550.52814 276.78464 551.0125 276.2534Q551.4969 275.7065 551.4969 274.78464Q551.4969 273.894 551.0125 273.3784Q550.54376 272.86276 549.825 272.86276Q549.10626 272.86276 548.60626 273.3784Q548.1219 273.894 548.1219 274.72214ZM557.325 277.5034L557.325 275.4409L553.60626 275.4409L553.60626 274.47214L557.52814 268.90964L558.3875 268.90964L558.3875 274.47214L559.54376 274.47214L559.54376 275.4409L558.3875 275.4409L558.3875 277.5034L557.325 277.5034ZM557.325 274.47214L557.325 270.61276L554.6375 274.47214L557.325 274.47214ZM561.54376 277.5034L561.54376 276.30026L562.7469 276.30026L562.7469 277.5034L561.54376 277.5034ZM563.95 275.23776L565.0125 275.09714Q565.1844 275.98776 565.6219 276.394Q566.0594 276.78464 566.6844 276.78464Q567.4344 276.78464 567.95 276.269Q568.46564 275.7534 568.46564 274.98776Q568.46564 274.269 567.98126 273.80026Q567.5125 273.3159 566.77814 273.3159Q566.48126 273.3159 566.02814 273.4409L566.15314 272.5034Q566.2625 272.519 566.325 272.519Q566.9969 272.519 567.52814 272.17526Q568.075 271.8159 568.075 271.0815Q568.075 270.5034 567.6844 270.1284Q567.29376 269.73776 566.66876 269.73776Q566.0594 269.73776 565.6375 270.1284Q565.23126 270.519 565.1219 271.28464L564.0594 271.09714Q564.2469 270.05026 564.9344 269.47214Q565.6219 268.8784 566.6375 268.8784Q567.34064 268.8784 567.9344 269.1909Q568.52814 269.48776 568.84064 270.0034Q569.15314 270.519 569.15314 271.11276Q569.15314 271.65964 568.85626 272.1284Q568.5594 272.5815 567.98126 272.84714Q568.73126 273.019 569.15314 273.5815Q569.575 274.1284 569.575 274.97214Q569.575 276.09714 568.7469 276.8784Q567.9344 277.65964 566.6844 277.65964Q565.5594 277.65964 564.8094 276.98776Q564.0594 276.30026 563.95 275.23776ZM571.15314 270.97214Q571.15314 270.05026 571.60626 269.40964Q572.075 268.769 572.95 268.769Q573.7625 268.769 574.29376 269.34714Q574.825 269.92526 574.825 271.03464Q574.825 272.1284 574.27814 272.72214Q573.7469 273.30026 572.96564 273.30026Q572.1844 273.30026 571.66876 272.72214Q571.15314 272.144 571.15314 270.97214ZM572.98126 269.48776Q572.59064 269.48776 572.325 269.8315Q572.075 270.17526 572.075 271.0815Q572.075 271.90964 572.325 272.2534Q572.59064 272.5815 572.98126 272.5815Q573.3875 272.5815 573.6375 272.23776Q573.90314 271.894 573.90314 271.0034Q573.90314 270.15964 573.6375 269.8315Q573.3719 269.48776 572.98126 269.48776ZM572.98126 277.8159L577.6844 268.769L578.54376 268.769L573.85626 277.8159L572.98126 277.8159ZM576.7 275.48776Q576.7 274.5659 577.15314 273.92526Q577.6219 273.28464 578.5125 273.28464Q579.325 273.28464 579.85626 273.86276Q580.3875 274.42526 580.3875 275.55026Q580.3875 276.644 579.84064 277.23776Q579.3094 277.8159 578.5125 277.8159Q577.7469 277.8159 577.21564 277.23776Q576.7 276.65964 576.7 275.48776ZM578.54376 274.0034Q578.1375 274.0034 577.8719 274.34714Q577.6219 274.6909 577.6219 275.59714Q577.6219 276.40964 577.8875 276.7534Q578.15314 277.09714 578.54376 277.09714Q578.9344 277.09714 579.2 276.7534Q579.46564 276.40964 579.46564 275.5034Q579.46564 274.67526 579.2 274.34714Q578.9344 274.0034 578.54376 274.0034Z" fill-rule="nonzero"/><path stroke="#b4b6b9" stroke-width="1.0" stroke-linecap="butt" d="M581.45 265.0034L454.76666 265.0034L427.33243 265.0034" fill-rule="nonzero"/><path fill="#8b8d91" d="M429.33243 265.0034C429.33243 263.89883 428.437 263.0034 427.33243 263.0034C426.22784 263.0034 425.33243 263.89883 425.33243 265.0034C425.33243 266.10797 426.22784 267.0034 427.33243 267.0034C428.437 267.0034 429.33243 266.10797 429.33243 265.0034" fill-rule="nonzero"/><path fill="#ffffff" d="M203.98438 37.55L203.98438 23.2375L206.84375 23.2375L210.21875 33.3625Q210.6875 34.784374 210.90625 35.4875Q211.15625 34.70625 211.67188 33.190624L215.09375 23.2375L217.64062 23.2375L217.64062 37.55L215.82812 37.55L215.82812 25.565624L211.65625 37.55L209.95312 37.55L205.8125 25.3625L205.8125 37.55L203.98438 37.55ZM227.59375 36.26875Q226.60938 37.096874 225.70312 37.440624Q224.79688 37.784374 223.76562 37.784374Q222.0625 37.784374 221.14062 36.95625Q220.21875 36.1125 220.21875 34.815624Q220.21875 34.05 220.5625 33.425Q220.92188 32.8 221.48438 32.425Q222.04688 32.034374 222.75 31.83125Q223.26562 31.70625 224.3125 31.565624Q226.4375 31.315624 227.4375 30.971874Q227.45312 30.6125 227.45312 30.503124Q227.45312 29.440624 226.95312 28.9875Q226.28125 28.39375 224.95312 28.39375Q223.70312 28.39375 223.10938 28.83125Q222.53125 29.26875 222.25 30.378124L220.53125 30.14375Q220.76562 29.034374 221.29688 28.3625Q221.82812 27.675 222.84375 27.315624Q223.85938 26.940624 225.20312 26.940624Q226.53125 26.940624 227.35938 27.253124Q228.1875 27.565624 228.57812 28.05Q228.96875 28.51875 229.125 29.2375Q229.21875 29.690624 229.21875 30.8625L229.21875 33.20625Q229.21875 35.659374 229.32812 36.315624Q229.4375 36.95625 229.78125 37.55L227.9375 37.55Q227.67188 37.003124 227.59375 36.26875ZM227.4375 32.346874Q226.48438 32.7375 224.5625 33.003124Q223.48438 33.159374 223.03125 33.3625Q222.59375 33.55 222.34375 33.925Q222.09375 34.3 222.09375 34.76875Q222.09375 35.471874 222.625 35.940624Q223.15625 36.409374 224.1875 36.409374Q225.20312 36.409374 225.98438 35.971874Q226.78125 35.51875 227.15625 34.753124Q227.4375 34.14375 227.4375 32.9875L227.4375 32.346874ZM235.65625 35.971874L235.90625 37.534374Q235.17188 37.690624 234.57812 37.690624Q233.625 37.690624 233.09375 37.39375Q232.57812 37.08125 232.35938 36.596874Q232.14062 36.096874 232.14062 34.51875L232.14062 28.55L230.85938 28.55L230.85938 27.175L232.14062 27.175L232.14062 24.6125L233.89062 23.55L233.89062 27.175L235.65625 27.175L235.65625 28.55L233.89062 28.55L233.89062 34.6125Q233.89062 35.3625 233.98438 35.58125Q234.07812 35.784374 234.28125 35.925Q234.5 36.05 234.89062 36.05Q235.17188 36.05 235.65625 35.971874ZM244.92188 34.20625L246.73438 34.440624Q246.3125 36.01875 245.14062 36.909374Q243.98438 37.784374 242.17188 37.784374Q239.90625 37.784374 238.5625 36.39375Q237.23438 34.9875 237.23438 32.45625Q237.23438 29.83125 238.57812 28.39375Q239.92188 26.940624 242.07812 26.940624Q244.15625 26.940624 245.46875 28.3625Q246.79688 29.76875 246.79688 32.346874Q246.79688 32.503124 246.78125 32.815624L239.04688 32.815624Q239.14062 34.51875 240.01562 35.425Q240.89062 36.33125 242.1875 36.33125Q243.15625 36.33125 243.82812 35.83125Q244.51562 35.315624 244.92188 34.20625ZM239.14062 31.3625L244.9375 31.3625Q244.82812 30.065624 244.28125 29.409374Q243.4375 28.39375 242.09375 28.39375Q240.89062 28.39375 240.0625 29.20625Q239.23438 30.003124 239.14062 31.3625ZM248.79688 37.55L248.79688 27.175L250.375 27.175L250.375 28.753124Q250.98438 27.64375 251.5 27.3Q252.01562 26.940624 252.625 26.940624Q253.51562 26.940624 254.4375 27.503124L253.82812 29.14375Q253.1875 28.753124 252.54688 28.753124Q251.96875 28.753124 251.5 29.1125Q251.04688 29.45625 250.84375 30.065624Q250.5625 31.003124 250.5625 32.1125L250.5625 37.55L248.79688 37.55ZM255.82812 25.253124L255.82812 23.2375L257.59375 23.2375L257.59375 25.253124L255.82812 25.253124ZM255.82812 37.55L255.82812 27.175L257.59375 27.175L257.59375 37.55L255.82812 37.55ZM266.59375 36.26875Q265.60938 37.096874 264.70312 37.440624Q263.79688 37.784374 262.76562 37.784374Q261.0625 37.784374 260.14062 36.95625Q259.21875 36.1125 259.21875 34.815624Q259.21875 34.05 259.5625 33.425Q259.92188 32.8 260.48438 32.425Q261.04688 32.034374 261.75 31.83125Q262.26562 31.70625 263.3125 31.565624Q265.4375 31.315624 266.4375 30.971874Q266.45312 30.6125 266.45312 30.503124Q266.45312 29.440624 265.95312 28.9875Q265.28125 28.39375 263.95312 28.39375Q262.70312 28.39375 262.10938 28.83125Q261.53125 29.26875 261.25 30.378124L259.53125 30.14375Q259.76562 29.034374 260.29688 28.3625Q260.82812 27.675 261.84375 27.315624Q262.85938 26.940624 264.20312 26.940624Q265.53125 26.940624 266.35938 27.253124Q267.1875 27.565624 267.57812 28.05Q267.96875 28.51875 268.125 29.2375Q268.21875 29.690624 268.21875 30.8625L268.21875 33.20625Q268.21875 35.659374 268.32812 36.315624Q268.4375 36.95625 268.78125 37.55L266.9375 37.55Q266.67188 37.003124 266.59375 36.26875ZM266.4375 32.346874Q265.48438 32.7375 263.5625 33.003124Q262.48438 33.159374 262.03125 33.3625Q261.59375 33.55 261.34375 33.925Q261.09375 34.3 261.09375 34.76875Q261.09375 35.471874 261.625 35.940624Q262.15625 36.409374 263.1875 36.409374Q264.20312 36.409374 264.98438 35.971874Q265.78125 35.51875 266.15625 34.753124Q266.4375 34.14375 266.4375 32.9875L266.4375 32.346874ZM270.78125 37.55L270.78125 23.2375L272.53125 23.2375L272.53125 37.55L270.78125 37.55ZM274.14062 33.253124L274.14062 31.4875L279.53125 31.4875L279.53125 33.253124L274.14062 33.253124ZM291.4375 23.2375L293.32812 23.2375L293.32812 31.503124Q293.32812 33.659374 292.84375 34.940624Q292.35938 36.20625 291.07812 37.003124Q289.8125 37.8 287.73438 37.8Q285.71875 37.8 284.4375 37.1125Q283.17188 36.409374 282.625 35.096874Q282.07812 33.784374 282.07812 31.503124L282.07812 23.2375L283.96875 23.2375L283.96875 31.4875Q283.96875 33.3625 284.3125 34.253124Q284.65625 35.128124 285.5 35.6125Q286.34375 36.08125 287.57812 36.08125Q289.65625 36.08125 290.54688 35.14375Q291.4375 34.190624 291.4375 31.4875L291.4375 23.2375ZM295.35938 37.55L295.35938 23.2375L297.26562 23.2375L297.26562 37.55L295.35938 37.55ZM316.4375 23.2375L318.32812 23.2375L318.32812 31.503124Q318.32812 33.659374 317.84375 34.940624Q317.35938 36.20625 316.07812 37.003124Q314.8125 37.8 312.73438 37.8Q310.71875 37.8 309.4375 37.1125Q308.17188 36.409374 307.625 35.096874Q307.07812 33.784374 307.07812 31.503124L307.07812 23.2375L308.96875 23.2375L308.96875 31.4875Q308.96875 33.3625 309.3125 34.253124Q309.65625 35.128124 310.5 35.6125Q311.34375 36.08125 312.57812 36.08125Q314.65625 36.08125 315.54688 35.14375Q316.4375 34.190624 316.4375 31.4875L316.4375 23.2375ZM319.10938 34.45625L320.85938 34.175Q321.0 35.221874 321.67188 35.784374Q322.34375 36.33125 323.54688 36.33125Q324.75 36.33125 325.32812 35.846874Q325.92188 35.346874 325.92188 34.690624Q325.92188 34.096874 325.40625 33.753124Q325.04688 33.51875 323.60938 33.159374Q321.67188 32.659374 320.92188 32.315624Q320.1875 31.95625 319.79688 31.33125Q319.40625 30.690624 319.40625 29.925Q319.40625 29.2375 319.71875 28.64375Q320.04688 28.05 320.59375 27.659374Q321.0 27.3625 321.70312 27.159374Q322.42188 26.940624 323.23438 26.940624Q324.45312 26.940624 325.375 27.3Q326.29688 27.64375 326.73438 28.253124Q327.17188 28.846874 327.34375 29.846874L325.625 30.08125Q325.5 29.284374 324.9375 28.846874Q324.375 28.39375 323.35938 28.39375Q322.14062 28.39375 321.625 28.8Q321.10938 29.190624 321.10938 29.721874Q321.10938 30.065624 321.32812 30.346874Q321.53125 30.628124 322.0 30.815624Q322.26562 30.909374 323.54688 31.253124Q325.42188 31.753124 326.15625 32.08125Q326.89062 32.39375 327.3125 33.003124Q327.73438 33.596874 327.73438 34.503124Q327.73438 35.378124 327.21875 36.159374Q326.70312 36.940624 325.73438 37.3625Q324.76562 37.784374 323.54688 37.784374Q321.53125 37.784374 320.46875 36.940624Q319.40625 36.096874 319.10938 34.45625ZM336.92188 34.20625L338.73438 34.440624Q338.3125 36.01875 337.14062 36.909374Q335.98438 37.784374 334.17188 37.784374Q331.90625 37.784374 330.5625 36.39375Q329.23438 34.9875 329.23438 32.45625Q329.23438 29.83125 330.57812 28.39375Q331.92188 26.940624 334.07812 26.940624Q336.15625 26.940624 337.46875 28.3625Q338.79688 29.76875 338.79688 32.346874Q338.79688 32.503124 338.78125 32.815624L331.04688 32.815624Q331.14062 34.51875 332.01562 35.425Q332.89062 36.33125 334.1875 36.33125Q335.15625 36.33125 335.82812 35.83125Q336.51562 35.315624 336.92188 34.20625ZM331.14062 31.3625L336.9375 31.3625Q336.82812 30.065624 336.28125 29.409374Q335.4375 28.39375 334.09375 28.39375Q332.89062 28.39375 332.0625 29.20625Q331.23438 30.003124 331.14062 31.3625ZM340.79688 37.55L340.79688 27.175L342.375 27.175L342.375 28.753124Q342.98438 27.64375 343.5 27.3Q344.01562 26.940624 344.625 26.940624Q345.51562 26.940624 346.4375 27.503124L345.82812 29.14375Q345.1875 28.753124 344.54688 28.753124Q343.96875 28.753124 343.5 29.1125Q343.04688 29.45625 342.84375 30.065624Q342.5625 31.003124 342.5625 32.1125L342.5625 37.55L340.79688 37.55ZM353.96875 37.55L353.96875 23.2375L359.34375 23.2375Q360.98438 23.2375 361.96875 23.675Q362.95312 24.096874 363.51562 25.003124Q364.07812 25.909374 364.07812 26.89375Q364.07812 27.815624 363.57812 28.628124Q363.09375 29.440624 362.07812 29.925Q363.375 30.315624 364.07812 31.2375Q364.78125 32.14375 364.78125 33.39375Q364.78125 34.409374 364.34375 35.26875Q363.92188 36.128124 363.29688 36.596874Q362.67188 37.065624 361.73438 37.315624Q360.79688 37.55 359.42188 37.55L353.96875 37.55ZM355.85938 29.253124L358.95312 29.253124Q360.21875 29.253124 360.76562 29.08125Q361.48438 28.8625 361.84375 28.378124Q362.21875 27.878124 362.21875 27.1125Q362.21875 26.409374 361.875 25.8625Q361.53125 25.315624 360.89062 25.128124Q360.26562 24.925 358.71875 24.925L355.85938 24.925L355.85938 29.253124ZM355.85938 35.8625L359.42188 35.8625Q360.34375 35.8625 360.71875 35.784374Q361.375 35.675 361.8125 35.409374Q362.25 35.128124 362.53125 34.6125Q362.8125 34.08125 362.8125 33.39375Q362.8125 32.596874 362.40625 32.003124Q362.0 31.409374 361.26562 31.175Q360.53125 30.940624 359.17188 30.940624L355.85938 30.940624L355.85938 35.8625ZM373.59375 36.26875Q372.60938 37.096874 371.70312 37.440624Q370.79688 37.784374 369.76562 37.784374Q368.0625 37.784374 367.14062 36.95625Q366.21875 36.1125 366.21875 34.815624Q366.21875 34.05 366.5625 33.425Q366.92188 32.8 367.48438 32.425Q368.04688 32.034374 368.75 31.83125Q369.26562 31.70625 370.3125 31.565624Q372.4375 31.315624 373.4375 30.971874Q373.45312 30.6125 373.45312 30.503124Q373.45312 29.440624 372.95312 28.9875Q372.28125 28.39375 370.95312 28.39375Q369.70312 28.39375 369.10938 28.83125Q368.53125 29.26875 368.25 30.378124L366.53125 30.14375Q366.76562 29.034374 367.29688 28.3625Q367.82812 27.675 368.84375 27.315624Q369.85938 26.940624 371.20312 26.940624Q372.53125 26.940624 373.35938 27.253124Q374.1875 27.565624 374.57812 28.05Q374.96875 28.51875 375.125 29.2375Q375.21875 29.690624 375.21875 30.8625L375.21875 33.20625Q375.21875 35.659374 375.32812 36.315624Q375.4375 36.95625 375.78125 37.55L373.9375 37.55Q373.67188 37.003124 373.59375 36.26875ZM373.4375 32.346874Q372.48438 32.7375 370.5625 33.003124Q369.48438 33.159374 369.03125 33.3625Q368.59375 33.55 368.34375 33.925Q368.09375 34.3 368.09375 34.76875Q368.09375 35.471874 368.625 35.940624Q369.15625 36.409374 370.1875 36.409374Q371.20312 36.409374 371.98438 35.971874Q372.78125 35.51875 373.15625 34.753124Q373.4375 34.14375 373.4375 32.9875L373.4375 32.346874ZM377.10938 34.45625L378.85938 34.175Q379.0 35.221874 379.67188 35.784374Q380.34375 36.33125 381.54688 36.33125Q382.75 36.33125 383.32812 35.846874Q383.92188 35.346874 383.92188 34.690624Q383.92188 34.096874 383.40625 33.753124Q383.04688 33.51875 381.60938 33.159374Q379.67188 32.659374 378.92188 32.315624Q378.1875 31.95625 377.79688 31.33125Q377.40625 30.690624 377.40625 29.925Q377.40625 29.2375 377.71875 28.64375Q378.04688 28.05 378.59375 27.659374Q379.0 27.3625 379.70312 27.159374Q380.42188 26.940624 381.23438 26.940624Q382.45312 26.940624 383.375 27.3Q384.29688 27.64375 384.73438 28.253124Q385.17188 28.846874 385.34375 29.846874L383.625 30.08125Q383.5 29.284374 382.9375 28.846874Q382.375 28.39375 381.35938 28.39375Q380.14062 28.39375 379.625 28.8Q379.10938 29.190624 379.10938 29.721874Q379.10938 30.065624 379.32812 30.346874Q379.53125 30.628124 380.0 30.815624Q380.26562 30.909374 381.54688 31.253124Q383.42188 31.753124 384.15625 32.08125Q384.89062 32.39375 385.3125 33.003124Q385.73438 33.596874 385.73438 34.503124Q385.73438 35.378124 385.21875 36.159374Q384.70312 36.940624 383.73438 37.3625Q382.76562 37.784374 381.54688 37.784374Q379.53125 37.784374 378.46875 36.940624Q377.40625 36.096874 377.10938 34.45625ZM394.92188 34.20625L396.73438 34.440624Q396.3125 36.01875 395.14062 36.909374Q393.98438 37.784374 392.17188 37.784374Q389.90625 37.784374 388.5625 36.39375Q387.23438 34.9875 387.23438 32.45625Q387.23438 29.83125 388.57812 28.39375Q389.92188 26.940624 392.07812 26.940624Q394.15625 26.940624 395.46875 28.3625Q396.79688 29.76875 396.79688 32.346874Q396.79688 32.503124 396.78125 32.815624L389.04688 32.815624Q389.14062 34.51875 390.01562 35.425Q390.89062 36.33125 392.1875 36.33125Q393.15625 36.33125 393.82812 35.83125Q394.51562 35.315624 394.92188 34.20625ZM389.14062 31.3625L394.9375 31.3625Q394.82812 30.065624 394.28125 29.409374Q393.4375 28.39375 392.09375 28.39375Q390.89062 28.39375 390.0625 29.20625Q389.23438 30.003124 389.14062 31.3625Z" fill-rule="nonzero"/></svg>