<svg version="1.1" viewBox="0.0 0.0 600.0 371.0" fill="none" stroke="none" stroke-linecap="square" stroke-miterlimit="10" width="600" height="371" xmlns:xlink="http://www.w3.org/1999/xlink" xmlns="http://www.w3.org/2000/svg"><path fill="#282c34" d="M0 0L600.0 0L600.0 371.0L0 371.0L0 0Z" fill-rule="nonzero"/><path fill="#5891ad" d="M300.0 54.916668C343.1496 54.916668 384.17337 73.65159 412.43036 106.26189C440.68732 138.87218 453.39328 182.14462 447.25244 224.85504L300.0 203.68333Z" fill-rule="nonzero"/><path fill="#ff6f31" d="M164.67708 141.88342C188.87187 88.904236 241.75755 54.916668 300.0 54.916668L300.0 203.68333Z" fill-rule="nonzero"/><path fill="#004561" d="M447.25244 224.85504C438.96368 282.50467 397.79562 330.0151 341.9124 346.42392C286.0292 362.8327 225.71034 345.1215 187.56966 301.10477C149.42897 257.08807 140.4823 194.86263 164.67708 141.88342L300.0 203.68333Z" fill-rule="nonzero"/><path stroke="#ffffff" stroke-width="1.0" stroke-linejoin="round" stroke-linecap="round" d="M300.0 203.68333L300.0 54.916668C343.1496 54.916668 384.17337 73.65159 412.43036 106.26189C440.68732 138.87218 453.39328 182.14462 447.25244 224.85504" fill-rule="nonzero"/><path stroke="#ffffff" stroke-width="1.0" stroke-linejoin="round" stroke-linecap="round" d="M300.0 203.68333L447.25244 224.85504C438.96368 282.50467 397.79562 330.0151 341.9124 346.42392C286.0292 362.8327 225.71034 345.1215 187.56966 301.10477C149.42897 257.08807 140.4823 194.86263 164.67708 141.88342" fill-rule="nonzero"/><path stroke="#ffffff" stroke-width="1.0" stroke-linejoin="round" stroke-linecap="round" d="M300.0 203.68333L164.67708 141.88342C188.87187 88.904236 241.75755 54.916668 300.0 54.916668" fill-rule="nonzero"/><path fill="#ffffff" d="M19.503124 80.290375L19.503124 71.696625L25.70625 71.696625L25.70625 72.71225L20.64375 72.71225L20.64375 75.33725L25.39375 75.33725L25.39375 76.352875L20.64375 76.352875L20.64375 79.27475L25.909374 79.27475L25.909374 80.290375L19.503124 80.290375ZM27.346874 80.290375L27.346874 74.071625L28.284374 74.071625L28.284374 74.946625Q28.971874 73.931 30.26875 73.931Q30.83125 73.931 31.3 74.134125Q31.784374 74.33725 32.01875 74.665375Q32.253124 74.9935 32.346874 75.431Q32.39375 75.727875 32.39375 76.46225L32.39375 80.290375L31.346874 80.290375L31.346874 76.509125Q31.346874 75.852875 31.221874 75.540375Q31.096874 75.227875 30.784374 75.040375Q30.471874 74.83725 30.05 74.83725Q29.378124 74.83725 28.878124 75.27475Q28.39375 75.696625 28.39375 76.884125L28.39375 80.290375L27.346874 80.290375ZM36.64375 79.352875L36.8 80.27475Q36.346874 80.3685 36.003124 80.3685Q35.425 80.3685 35.1125 80.196625Q34.8 80.009125 34.659374 79.71225Q34.534374 79.415375 34.534374 78.46225L34.534374 74.884125L33.76875 74.884125L33.76875 74.071625L34.534374 74.071625L34.534374 72.52475L35.58125 71.89975L35.58125 74.071625L36.64375 74.071625L36.64375 74.884125L35.58125 74.884125L35.58125 78.52475Q35.58125 78.977875 35.628124 79.102875Q35.690624 79.227875 35.815624 79.306Q35.940624 79.384125 36.175 79.384125Q36.3625 79.384125 36.64375 79.352875ZM41.596874 78.290375L42.690624 78.415375Q42.440624 79.3685 41.7375 79.89975Q41.034374 80.431 39.95625 80.431Q38.596874 80.431 37.784374 79.58725Q36.9875 78.7435 36.9875 77.227875Q36.9875 75.665375 37.8 74.806Q38.6125 73.931 39.89375 73.931Q41.14375 73.931 41.925 74.77475Q42.721874 75.6185 42.721874 77.165375Q42.721874 77.259125 42.721874 77.446625L38.08125 77.446625Q38.14375 78.477875 38.659374 79.02475Q39.175 79.556 39.95625 79.556Q40.534374 79.556 40.940624 79.259125Q41.3625 78.946625 41.596874 78.290375ZM38.14375 76.58725L41.6125 76.58725Q41.55 75.790375 41.221874 75.39975Q40.70625 74.790375 39.909374 74.790375Q39.175 74.790375 38.675 75.27475Q38.190624 75.759125 38.14375 76.58725ZM44.33125 80.290375L44.33125 74.071625L45.284374 74.071625L45.284374 75.009125Q45.64375 74.352875 45.940624 74.14975Q46.253124 73.931 46.628124 73.931Q47.159374 73.931 47.70625 74.259125L47.346874 75.2435Q46.95625 75.009125 46.58125 75.009125Q46.221874 75.009125 45.940624 75.227875Q45.675 75.431 45.565624 75.806Q45.378124 76.3685 45.378124 77.02475L45.378124 80.290375L44.33125 80.290375ZM48.346874 82.681L48.346874 74.071625L49.3 74.071625L49.3 74.8685Q49.64375 74.39975 50.065624 74.165375Q50.503124 73.931 51.1125 73.931Q51.909374 73.931 52.51875 74.33725Q53.128124 74.7435 53.425 75.4935Q53.7375 76.2435 53.7375 77.134125Q53.7375 78.08725 53.39375 78.852875Q53.065624 79.6185 52.409374 80.02475Q51.753124 80.431 51.034374 80.431Q50.503124 80.431 50.08125 80.21225Q49.659374 79.977875 49.39375 79.64975L49.39375 82.681L48.346874 82.681ZM49.3 77.21225Q49.3 78.415375 49.784374 78.9935Q50.26875 79.556 50.95625 79.556Q51.659374 79.556 52.159374 78.96225Q52.659374 78.3685 52.659374 77.1185Q52.659374 75.931 52.175 75.352875Q51.690624 74.759125 51.003124 74.759125Q50.33125 74.759125 49.815624 75.384125Q49.3 76.009125 49.3 77.21225ZM55.33125 80.290375L55.33125 74.071625L56.284374 74.071625L56.284374 75.009125Q56.64375 74.352875 56.940624 74.14975Q57.253124 73.931 57.628124 73.931Q58.159374 73.931 58.70625 74.259125L58.346874 75.2435Q57.95625 75.009125 57.58125 75.009125Q57.221874 75.009125 56.940624 75.227875Q56.675 75.431 56.565624 75.806Q56.378124 76.3685 56.378124 77.02475L56.378124 80.290375L55.33125 80.290375ZM59.346874 72.915375L59.346874 71.696625L60.409374 71.696625L60.409374 72.915375L59.346874 72.915375ZM59.346874 80.290375L59.346874 74.071625L60.409374 74.071625L60.409374 80.290375L59.346874 80.290375ZM61.925 78.431L62.95625 78.27475Q63.05 78.89975 63.440624 79.227875Q63.846874 79.556 64.58125 79.556Q65.3 79.556 65.64375 79.27475Q66.00313 78.977875 66.00313 78.571625Q66.00313 78.21225 65.69063 78.009125Q65.47188 77.8685 64.6125 77.64975Q63.45625 77.352875 63.003124 77.14975Q62.565624 76.931 62.33125 76.556Q62.096874 76.181 62.096874 75.71225Q62.096874 75.306 62.284374 74.946625Q62.471874 74.58725 62.8 74.352875Q63.05 74.181 63.471874 74.056Q63.89375 73.931 64.39375 73.931Q65.1125 73.931 65.65938 74.14975Q66.22188 74.352875 66.4875 74.71225Q66.75313 75.071625 66.84688 75.665375L65.81563 75.806Q65.75313 75.33725 65.40938 75.071625Q65.08125 74.790375 64.45625 74.790375Q63.7375 74.790375 63.425 75.040375Q63.1125 75.27475 63.1125 75.602875Q63.1125 75.806 63.2375 75.96225Q63.378124 76.134125 63.64375 76.2435Q63.8 76.306 64.58125 76.509125Q65.70625 76.821625 66.14375 77.009125Q66.58125 77.196625 66.83125 77.556Q67.08125 77.915375 67.08125 78.46225Q67.08125 78.9935 66.76875 79.46225Q66.47188 79.915375 65.89375 80.181Q65.31563 80.431 64.58125 80.431Q63.3625 80.431 62.721874 79.931Q62.096874 79.415375 61.925 78.431ZM73.59688 78.290375L74.69063 78.415375Q74.44063 79.3685 73.7375 79.89975Q73.03438 80.431 71.95625 80.431Q70.59688 80.431 69.78438 79.58725Q68.9875 78.7435 68.9875 77.227875Q68.9875 75.665375 69.8 74.806Q70.6125 73.931 71.89375 73.931Q73.14375 73.931 73.925 74.77475Q74.72188 75.6185 74.72188 77.165375Q74.72188 77.259125 74.72188 77.446625L70.08125 77.446625Q70.14375 78.477875 70.65938 79.02475Q71.175 79.556 71.95625 79.556Q72.53438 79.556 72.94063 79.259125Q73.3625 78.946625 73.59688 78.290375ZM70.14375 76.58725L73.6125 76.58725Q73.55 75.790375 73.22188 75.39975Q72.70625 74.790375 71.90938 74.790375Q71.175 74.790375 70.675 75.27475Q70.19063 75.759125 70.14375 76.58725Z" fill-rule="nonzero"/><path fill="#8b8d91" d="M23.01875 97.290375L21.971874 97.290375L21.971874 90.571625Q21.58125 90.931 20.95625 91.306Q20.346874 91.665375 19.8625 91.83725L19.8625 90.821625Q20.7375 90.39975 21.39375 89.821625Q22.065624 89.227875 22.346874 88.665375L23.01875 88.665375L23.01875 97.290375ZM27.675 92.634125Q27.01875 92.384125 26.690624 91.946625Q26.378124 91.4935 26.378124 90.884125Q26.378124 89.946625 27.05 89.306Q27.7375 88.665375 28.846874 88.665375Q29.971874 88.665375 30.659374 89.321625Q31.346874 89.977875 31.346874 90.915375Q31.346874 91.509125 31.034374 91.946625Q30.721874 92.384125 30.08125 92.634125Q30.878124 92.884125 31.284374 93.46225Q31.690624 94.040375 31.690624 94.83725Q31.690624 95.931 30.909374 96.681Q30.14375 97.431 28.8625 97.431Q27.596874 97.431 26.815624 96.681Q26.034374 95.931 26.034374 94.806Q26.034374 93.96225 26.45625 93.39975Q26.89375 92.83725 27.675 92.634125ZM27.45625 90.83725Q27.45625 91.446625 27.846874 91.83725Q28.253124 92.227875 28.878124 92.227875Q29.4875 92.227875 29.878124 91.852875Q30.26875 91.46225 30.26875 90.89975Q30.26875 90.321625 29.8625 89.931Q29.45625 89.52475 28.8625 89.52475Q28.253124 89.52475 27.846874 89.915375Q27.45625 90.306 27.45625 90.83725ZM27.128124 94.806Q27.128124 95.259125 27.33125 95.681Q27.55 96.102875 27.971874 96.33725Q28.39375 96.571625 28.878124 96.571625Q29.628124 96.571625 30.1125 96.08725Q30.6125 95.602875 30.6125 94.852875Q30.6125 94.08725 30.1125 93.58725Q29.6125 93.08725 28.846874 93.08725Q28.096874 93.08725 27.6125 93.58725Q27.128124 94.071625 27.128124 94.806ZM33.64375 97.290375L33.64375 96.08725L34.846874 96.08725L34.846874 97.290375L33.64375 97.290375ZM41.596874 96.27475L41.596874 97.290375L35.909374 97.290375Q35.909374 96.915375 36.034374 96.556Q36.253124 95.977875 36.721874 95.415375Q37.20625 94.852875 38.1125 94.1185Q39.51875 92.96225 40.003124 92.290375Q40.503124 91.6185 40.503124 91.02475Q40.503124 90.39975 40.05 89.977875Q39.596874 89.540375 38.878124 89.540375Q38.1125 89.540375 37.659374 89.9935Q37.20625 90.446625 37.190624 91.259125L36.1125 91.14975Q36.221874 89.931 36.940624 89.306Q37.675 88.665375 38.909374 88.665375Q40.14375 88.665375 40.8625 89.352875Q41.58125 90.040375 41.58125 91.056Q41.58125 91.571625 41.3625 92.071625Q41.159374 92.556 40.659374 93.1185Q40.175 93.665375 39.05 94.6185Q38.096874 95.415375 37.815624 95.71225Q37.55 95.9935 37.378124 96.27475L41.596874 96.27475ZM43.253124 90.759125Q43.253124 89.83725 43.70625 89.196625Q44.175 88.556 45.05 88.556Q45.8625 88.556 46.39375 89.134125Q46.925 89.71225 46.925 90.821625Q46.925 91.915375 46.378124 92.509125Q45.846874 93.08725 45.065624 93.08725Q44.284374 93.08725 43.76875 92.509125Q43.253124 91.931 43.253124 90.759125ZM45.08125 89.27475Q44.690624 89.27475 44.425 89.6185Q44.175 89.96225 44.175 90.8685Q44.175 91.696625 44.425 92.040375Q44.690624 92.3685 45.08125 92.3685Q45.4875 92.3685 45.7375 92.02475Q46.003124 91.681 46.003124 90.790375Q46.003124 89.946625 45.7375 89.6185Q45.471874 89.27475 45.08125 89.27475ZM45.08125 97.602875L49.784374 88.556L50.64375 88.556L45.95625 97.602875L45.08125 97.602875ZM48.8 95.27475Q48.8 94.352875 49.253124 93.71225Q49.721874 93.071625 50.6125 93.071625Q51.425 93.071625 51.95625 93.64975Q52.4875 94.21225 52.4875 95.33725Q52.4875 96.431 51.940624 97.02475Q51.409374 97.602875 50.6125 97.602875Q49.846874 97.602875 49.315624 97.02475Q48.8 96.446625 48.8 95.27475ZM50.64375 93.790375Q50.2375 93.790375 49.971874 94.134125Q49.721874 94.477875 49.721874 95.384125Q49.721874 96.196625 49.9875 96.540375Q50.253124 96.884125 50.64375 96.884125Q51.034374 96.884125 51.3 96.540375Q51.565624 96.196625 51.565624 95.290375Q51.565624 94.46225 51.3 94.134125Q51.034374 93.790375 50.64375 93.790375Z" fill-rule="nonzero"/><path stroke="#b4b6b9" stroke-width="1.0" stroke-linecap="butt" d="M18.55 84.790375L145.23334 84.790375L223.59213 84.790375" fill-rule="nonzero"/><path fill="#8b8d91" d="M225.59213 84.790375C225.59213 83.68581 224.6967 82.790375 223.59213 82.790375C222.48756 82.790375 221.59213 83.68581 221.59213 84.790375C221.59213 85.89494 222.48756 86.790375 223.59213 86.790375C224.6967 86.790375 225.59213 85.89494 225.59213 84.790375" fill-rule="nonzero"/><path fill="#ffffff" d="M19.440624 332.45L19.440624 323.85626L21.159374 323.85626L23.190624 329.9344Q23.471874 330.79376 23.596874 331.21564Q23.7375 330.7469 24.05 329.84064L26.1125 323.85626L27.64375 323.85626L27.64375 332.45L26.55 332.45L26.55 325.2625L24.05 332.45L23.01875 332.45L20.534374 325.1375L20.534374 332.45L19.440624 332.45ZM28.346874 325.075L28.346874 323.85626L29.409374 323.85626L29.409374 325.075L28.346874 325.075ZM28.346874 332.45L28.346874 326.23126L29.409374 326.23126L29.409374 332.45L28.346874 332.45ZM35.378124 332.45L35.378124 331.66876Q34.784374 332.59064 33.64375 332.59064Q32.89375 332.59064 32.26875 332.1844Q31.64375 331.7625 31.3 331.02814Q30.95625 330.29376 30.95625 329.34064Q30.95625 328.41876 31.26875 327.65314Q31.58125 326.8875 32.20625 326.4969Q32.83125 326.09064 33.596874 326.09064Q34.159374 326.09064 34.596874 326.325Q35.034374 326.5594 35.315624 326.9344L35.315624 323.85626L36.3625 323.85626L36.3625 332.45L35.378124 332.45ZM32.05 329.34064Q32.05 330.54376 32.55 331.1375Q33.05 331.71564 33.7375 331.71564Q34.425 331.71564 34.909374 331.15314Q35.39375 330.59064 35.39375 329.4344Q35.39375 328.15314 34.89375 327.5594Q34.409374 326.96564 33.690624 326.96564Q32.9875 326.96564 32.51875 327.54376Q32.05 328.10626 32.05 329.34064ZM37.925 329.8719L37.925 328.8094L41.175 328.8094L41.175 329.8719L37.925 329.8719ZM42.440624 332.45L42.440624 323.85626L44.159374 323.85626L46.190624 329.9344Q46.471874 330.79376 46.596874 331.21564Q46.7375 330.7469 47.05 329.84064L49.1125 323.85626L50.64375 323.85626L50.64375 332.45L49.55 332.45L49.55 325.2625L47.05 332.45L46.01875 332.45L43.534374 325.1375L43.534374 332.45L42.440624 332.45ZM55.409374 331.6844Q54.815624 332.1844 54.26875 332.3875Q53.7375 332.59064 53.1125 332.59064Q52.08125 332.59064 51.534374 332.09064Q50.9875 331.59064 50.9875 330.8094Q50.9875 330.35626 51.190624 329.98126Q51.39375 329.59064 51.7375 329.3719Q52.08125 329.1375 52.503124 329.02814Q52.8 328.9344 53.440624 328.85626Q54.70625 328.71564 55.315624 328.4969Q55.315624 328.27814 55.315624 328.23126Q55.315624 327.575 55.01875 327.3094Q54.6125 326.96564 53.815624 326.96564Q53.08125 326.96564 52.721874 327.23126Q52.3625 327.48126 52.190624 328.1375L51.159374 327.9969Q51.3 327.34064 51.628124 326.9344Q51.95625 326.52814 52.565624 326.3094Q53.175 326.09064 53.971874 326.09064Q54.76875 326.09064 55.26875 326.27814Q55.76875 326.46564 56.003124 326.7469Q56.2375 327.02814 56.33125 327.46564Q56.378124 327.73126 56.378124 328.4344L56.378124 329.84064Q56.378124 331.3094 56.440624 331.7Q56.51875 332.09064 56.721874 332.45L55.6125 332.45Q55.45625 332.1219 55.409374 331.6844ZM55.315624 329.325Q54.7375 329.5594 53.596874 329.73126Q52.940624 329.825 52.675 329.95Q52.409374 330.0594 52.253124 330.27814Q52.1125 330.4969 52.1125 330.77814Q52.1125 331.2 52.425 331.48126Q52.753124 331.7625 53.3625 331.7625Q53.971874 331.7625 54.440624 331.4969Q54.925 331.23126 55.14375 330.7625Q55.315624 330.40314 55.315624 329.71564L55.315624 329.325ZM58.33125 332.45L58.33125 326.23126L59.284374 326.23126L59.284374 327.16876Q59.64375 326.5125 59.940624 326.3094Q60.253124 326.09064 60.628124 326.09064Q61.159374 326.09064 61.70625 326.41876L61.346874 327.40314Q60.95625 327.16876 60.58125 327.16876Q60.221874 327.16876 59.940624 327.3875Q59.675 327.59064 59.565624 327.96564Q59.378124 328.52814 59.378124 329.1844L59.378124 332.45L58.33125 332.45ZM62.346874 332.45L62.346874 323.85626L63.409374 323.85626L63.409374 328.7625L65.89375 326.23126L67.26875 326.23126L64.87813 328.52814L67.50313 332.45L66.20625 332.45L64.14375 329.2625L63.409374 329.98126L63.409374 332.45L62.346874 332.45ZM72.59688 330.45L73.69063 330.575Q73.44063 331.52814 72.7375 332.0594Q72.03438 332.59064 70.95625 332.59064Q69.59688 332.59064 68.78438 331.7469Q67.9875 330.90314 67.9875 329.3875Q67.9875 327.825 68.8 326.96564Q69.6125 326.09064 70.89375 326.09064Q72.14375 326.09064 72.925 326.9344Q73.72188 327.77814 73.72188 329.325Q73.72188 329.41876 73.72188 329.60626L69.08125 329.60626Q69.14375 330.6375 69.65938 331.1844Q70.175 331.71564 70.95625 331.71564Q71.53438 331.71564 71.94063 331.41876Q72.3625 331.10626 72.59688 330.45ZM69.14375 328.7469L72.6125 328.7469Q72.55 327.95 72.22188 327.5594Q71.70625 326.95 70.90938 326.95Q70.175 326.95 69.675 327.4344Q69.19063 327.91876 69.14375 328.7469ZM77.64375 331.5125L77.8 332.4344Q77.34688 332.52814 77.00313 332.52814Q76.425 332.52814 76.1125 332.35626Q75.8 332.16876 75.65938 331.8719Q75.53438 331.575 75.53438 330.6219L75.53438 327.04376L74.76875 327.04376L74.76875 326.23126L75.53438 326.23126L75.53438 324.6844L76.58125 324.0594L76.58125 326.23126L77.64375 326.23126L77.64375 327.04376L76.58125 327.04376L76.58125 330.6844Q76.58125 331.1375 76.62813 331.2625Q76.69063 331.3875 76.81563 331.46564Q76.94063 331.54376 77.175 331.54376Q77.3625 331.54376 77.64375 331.5125Z" fill-rule="nonzero"/><path fill="#8b8d91" d="M19.05 347.2L20.159374 347.10626Q20.284374 347.91876 20.721874 348.325Q21.175 348.73126 21.815624 348.73126Q22.565624 348.73126 23.096874 348.15314Q23.628124 347.575 23.628124 346.6375Q23.628124 345.73126 23.1125 345.21564Q22.6125 344.6844 21.784374 344.6844Q21.284374 344.6844 20.8625 344.91876Q20.45625 345.15314 20.221874 345.5125L19.2375 345.3875L20.065624 340.98126L24.346874 340.98126L24.346874 341.98126L20.909374 341.98126L20.45625 344.29376Q21.221874 343.7469 22.065624 343.7469Q23.190624 343.7469 23.95625 344.52814Q24.7375 345.3094 24.7375 346.54376Q24.7375 347.7 24.065624 348.5594Q23.2375 349.59064 21.815624 349.59064Q20.64375 349.59064 19.89375 348.9344Q19.159374 348.27814 19.05 347.2ZM29.425 349.45L29.425 347.3875L25.70625 347.3875L25.70625 346.41876L29.628124 340.85626L30.4875 340.85626L30.4875 346.41876L31.64375 346.41876L31.64375 347.3875L30.4875 347.3875L30.4875 349.45L29.425 349.45ZM29.425 346.41876L29.425 342.5594L26.7375 346.41876L29.425 346.41876ZM33.64375 349.45L33.64375 348.2469L34.846874 348.2469L34.846874 349.45L33.64375 349.45ZM36.05 347.2L37.159374 347.10626Q37.284374 347.91876 37.721874 348.325Q38.175 348.73126 38.815624 348.73126Q39.565624 348.73126 40.096874 348.15314Q40.628124 347.575 40.628124 346.6375Q40.628124 345.73126 40.1125 345.21564Q39.6125 344.6844 38.784374 344.6844Q38.284374 344.6844 37.8625 344.91876Q37.45625 345.15314 37.221874 345.5125L36.2375 345.3875L37.065624 340.98126L41.346874 340.98126L41.346874 341.98126L37.909374 341.98126L37.45625 344.29376Q38.221874 343.7469 39.065624 343.7469Q40.190624 343.7469 40.95625 344.52814Q41.7375 345.3094 41.7375 346.54376Q41.7375 347.7 41.065624 348.5594Q40.2375 349.59064 38.815624 349.59064Q37.64375 349.59064 36.89375 348.9344Q36.159374 348.27814 36.05 347.2ZM43.253124 342.91876Q43.253124 341.9969 43.70625 341.35626Q44.175 340.71564 45.05 340.71564Q45.8625 340.71564 46.39375 341.29376Q46.925 341.8719 46.925 342.98126Q46.925 344.075 46.378124 344.66876Q45.846874 345.2469 45.065624 345.2469Q44.284374 345.2469 43.76875 344.66876Q43.253124 344.09064 43.253124 342.91876ZM45.08125 341.4344Q44.690624 341.4344 44.425 341.77814Q44.175 342.1219 44.175 343.02814Q44.175 343.85626 44.425 344.2Q44.690624 344.52814 45.08125 344.52814Q45.4875 344.52814 45.7375 344.1844Q46.003124 343.84064 46.003124 342.95Q46.003124 342.10626 45.7375 341.77814Q45.471874 341.4344 45.08125 341.4344ZM45.08125 349.7625L49.784374 340.71564L50.64375 340.71564L45.95625 349.7625L45.08125 349.7625ZM48.8 347.4344Q48.8 346.5125 49.253124 345.8719Q49.721874 345.23126 50.6125 345.23126Q51.425 345.23126 51.95625 345.8094Q52.4875 346.3719 52.4875 347.4969Q52.4875 348.59064 51.940624 349.1844Q51.409374 349.7625 50.6125 349.7625Q49.846874 349.7625 49.315624 349.1844Q48.8 348.60626 48.8 347.4344ZM50.64375 345.95Q50.2375 345.95 49.971874 346.29376Q49.721874 346.6375 49.721874 347.54376Q49.721874 348.35626 49.9875 348.7Q50.253124 349.04376 50.64375 349.04376Q51.034374 349.04376 51.3 348.7Q51.565624 348.35626 51.565624 347.45Q51.565624 346.6219 51.3 346.29376Q51.034374 345.95 50.64375 345.95Z" fill-rule="nonzero"/><path stroke="#b4b6b9" stroke-width="1.0" stroke-linecap="butt" d="M18.55 336.95L145.23334 336.95L260.1832 339.28687" fill-rule="nonzero"/><path fill="#8b8d91" d="M262.1832 339.28687C262.1832 338.1823 261.28778 337.28687 260.1832 337.28687C259.07864 337.28687 258.1832 338.1823 258.1832 339.28687C258.1832 340.39145 259.07864 341.28687 260.1832 341.28687C261.28778 341.28687 262.1832 340.39145 262.1832 339.28687" fill-rule="nonzero"/><path fill="#ffffff" d="M478.9969 103.86733L480.0594 103.77358Q480.1375 104.42983 480.41876 104.83608Q480.7 105.24233 481.27814 105.50796Q481.8719 105.75796 482.60626 105.75796Q483.2469 105.75796 483.7469 105.57046Q484.2469 105.36733 484.48126 105.03921Q484.73126 104.69546 484.73126 104.30483Q484.73126 103.89858 484.4969 103.60171Q484.2625 103.28921 483.73126 103.08608Q483.3719 102.94546 482.1844 102.66421Q481.0125 102.38296 480.54376 102.13296Q479.91876 101.80483 479.6219 101.33608Q479.325 100.85171 479.325 100.25796Q479.325 99.61733 479.6844 99.05483Q480.0594 98.47671 480.7625 98.19546Q481.48126 97.89858 482.34064 97.89858Q483.29376 97.89858 484.02814 98.21108Q484.7625 98.50796 485.15314 99.11733Q485.54376 99.71108 485.575 100.46108L484.48126 100.53921Q484.3875 99.72671 483.8719 99.32046Q483.3719 98.89858 482.3875 98.89858Q481.35626 98.89858 480.8875 99.27358Q480.41876 99.64858 480.41876 100.17983Q480.41876 100.64858 480.7469 100.94546Q481.075 101.24233 482.45 101.55483Q483.84064 101.86733 484.35626 102.10171Q485.10626 102.46108 485.46564 102.99233Q485.825 103.50796 485.825 104.21108Q485.825 104.89858 485.4344 105.50796Q485.04376 106.10171 484.3094 106.44546Q483.575 106.77358 482.65314 106.77358Q481.48126 106.77358 480.6844 106.44546Q479.90314 106.10171 479.45 105.41421Q479.0125 104.72671 478.9969 103.86733ZM487.2469 106.63296L487.2469 100.41421L488.1844 100.41421L488.1844 101.28921Q488.48126 100.82046 488.96564 100.55483Q489.45 100.27358 490.075 100.27358Q490.7625 100.27358 491.2 100.55483Q491.65314 100.83608 491.825 101.35171Q492.575 100.27358 493.7469 100.27358Q494.6844 100.27358 495.16876 100.78921Q495.66876 101.28921 495.66876 102.36733L495.66876 106.63296L494.6219 106.63296L494.6219 102.71108Q494.6219 102.08608 494.5125 101.80483Q494.41876 101.52358 494.15314 101.35171Q493.8875 101.17983 493.5125 101.17983Q492.85626 101.17983 492.41876 101.61733Q491.9969 102.05483 491.9969 103.02358L491.9969 106.63296L490.9344 106.63296L490.9344 102.58608Q490.9344 101.88296 490.66876 101.53921Q490.41876 101.17983 489.84064 101.17983Q489.3875 101.17983 489.0125 101.41421Q488.6375 101.64858 488.46564 102.10171Q488.29376 102.55483 488.29376 103.39858L488.29376 106.63296L487.2469 106.63296ZM502.3094 105.86733Q501.71564 106.36733 501.16876 106.57046Q500.6375 106.77358 500.0125 106.77358Q498.98126 106.77358 498.4344 106.27358Q497.8875 105.77358 497.8875 104.99233Q497.8875 104.53921 498.09064 104.16421Q498.29376 103.77358 498.6375 103.55483Q498.98126 103.32046 499.40314 103.21108Q499.7 103.11733 500.34064 103.03921Q501.60626 102.89858 502.21564 102.67983Q502.21564 102.46108 502.21564 102.41421Q502.21564 101.75796 501.91876 101.49233Q501.5125 101.14858 500.71564 101.14858Q499.98126 101.14858 499.6219 101.41421Q499.2625 101.66421 499.09064 102.32046L498.0594 102.17983Q498.2 101.52358 498.52814 101.11733Q498.85626 100.71108 499.46564 100.49233Q500.075 100.27358 500.8719 100.27358Q501.66876 100.27358 502.16876 100.46108Q502.66876 100.64858 502.90314 100.92983Q503.1375 101.21108 503.23126 101.64858Q503.27814 101.91421 503.27814 102.61733L503.27814 104.02358Q503.27814 105.49233 503.34064 105.88296Q503.41876 106.27358 503.6219 106.63296L502.5125 106.63296Q502.35626 106.30483 502.3094 105.86733ZM502.21564 103.50796Q501.6375 103.74233 500.4969 103.91421Q499.84064 104.00796 499.575 104.13296Q499.3094 104.24233 499.15314 104.46108Q499.0125 104.67983 499.0125 104.96108Q499.0125 105.38296 499.325 105.66421Q499.65314 105.94546 500.2625 105.94546Q500.8719 105.94546 501.34064 105.67983Q501.825 105.41421 502.04376 104.94546Q502.21564 104.58608 502.21564 103.89858L502.21564 103.50796ZM505.21564 106.63296L505.21564 98.03921L506.27814 98.03921L506.27814 106.63296L505.21564 106.63296ZM508.21564 106.63296L508.21564 98.03921L509.27814 98.03921L509.27814 106.63296L508.21564 106.63296ZM510.825 104.05483L510.825 102.99233L514.075 102.99233L514.075 104.05483L510.825 104.05483ZM515.325 106.63296L515.325 98.03921L518.5594 98.03921Q519.54376 98.03921 520.1375 98.30483Q520.73126 98.57046 521.0594 99.11733Q521.40314 99.64858 521.40314 100.24233Q521.40314 100.78921 521.10626 101.27358Q520.8094 101.75796 520.2 102.05483Q520.98126 102.28921 521.3875 102.85171Q521.8094 103.39858 521.8094 104.14858Q521.8094 104.74233 521.5594 105.27358Q521.3094 105.78921 520.9344 106.07046Q520.5594 106.35171 519.98126 106.49233Q519.41876 106.63296 518.60626 106.63296L515.325 106.63296ZM516.46564 101.64858L518.325 101.64858Q519.075 101.64858 519.40314 101.55483Q519.84064 101.42983 520.0594 101.13296Q520.27814 100.82046 520.27814 100.36733Q520.27814 99.94546 520.075 99.61733Q519.8719 99.28921 519.48126 99.17983Q519.10626 99.05483 518.1844 99.05483L516.46564 99.05483L516.46564 101.64858ZM516.46564 105.61733L518.60626 105.61733Q519.15314 105.61733 519.3719 105.57046Q519.77814 105.50796 520.02814 105.35171Q520.29376 105.17983 520.46564 104.86733Q520.6375 104.55483 520.6375 104.14858Q520.6375 103.66421 520.3875 103.30483Q520.15314 102.94546 519.71564 102.80483Q519.27814 102.66421 518.45 102.66421L516.46564 102.66421L516.46564 105.61733ZM527.325 106.63296L527.325 105.71108Q526.59064 106.77358 525.34064 106.77358Q524.79376 106.77358 524.3094 106.57046Q523.84064 106.35171 523.60626 106.03921Q523.3719 105.71108 523.27814 105.24233Q523.21564 104.94546 523.21564 104.25796L523.21564 100.41421L524.27814 100.41421L524.27814 103.86733Q524.27814 104.67983 524.34064 104.97671Q524.4344 105.38296 524.7469 105.63296Q525.075 105.86733 525.5594 105.86733Q526.02814 105.86733 526.4344 105.63296Q526.85626 105.38296 527.02814 104.96108Q527.21564 104.53921 527.21564 103.74233L527.21564 100.41421L528.2625 100.41421L528.2625 106.63296L527.325 106.63296ZM529.825 104.77358L530.85626 104.61733Q530.95 105.24233 531.34064 105.57046Q531.7469 105.89858 532.48126 105.89858Q533.2 105.89858 533.54376 105.61733Q533.90314 105.32046 533.90314 104.91421Q533.90314 104.55483 533.59064 104.35171Q533.3719 104.21108 532.5125 103.99233Q531.35626 103.69546 530.90314 103.49233Q530.46564 103.27358 530.23126 102.89858Q529.9969 102.52358 529.9969 102.05483Q529.9969 101.64858 530.1844 101.28921Q530.3719 100.92983 530.7 100.69546Q530.95 100.52358 531.3719 100.39858Q531.79376 100.27358 532.29376 100.27358Q533.0125 100.27358 533.5594 100.49233Q534.1219 100.69546 534.3875 101.05483Q534.65314 101.41421 534.7469 102.00796L533.71564 102.14858Q533.65314 101.67983 533.3094 101.41421Q532.98126 101.13296 532.35626 101.13296Q531.6375 101.13296 531.325 101.38296Q531.0125 101.61733 531.0125 101.94546Q531.0125 102.14858 531.1375 102.30483Q531.27814 102.47671 531.54376 102.58608Q531.7 102.64858 532.48126 102.85171Q533.60626 103.16421 534.04376 103.35171Q534.48126 103.53921 534.73126 103.89858Q534.98126 104.25796 534.98126 104.80483Q534.98126 105.33608 534.66876 105.80483Q534.3719 106.25796 533.79376 106.52358Q533.21564 106.77358 532.48126 106.77358Q531.2625 106.77358 530.6219 106.27358Q529.9969 105.75796 529.825 104.77358ZM537.2469 99.25796L537.2469 98.03921L538.3094 98.03921L538.3094 99.25796L537.2469 99.25796ZM537.2469 106.63296L537.2469 100.41421L538.3094 100.41421L538.3094 106.63296L537.2469 106.63296ZM540.2469 106.63296L540.2469 100.41421L541.1844 100.41421L541.1844 101.28921Q541.8719 100.27358 543.16876 100.27358Q543.73126 100.27358 544.2 100.47671Q544.6844 100.67983 544.91876 101.00796Q545.15314 101.33608 545.2469 101.77358Q545.29376 102.07046 545.29376 102.80483L545.29376 106.63296L544.2469 106.63296L544.2469 102.85171Q544.2469 102.19546 544.1219 101.88296Q543.9969 101.57046 543.6844 101.38296Q543.3719 101.17983 542.95 101.17983Q542.27814 101.17983 541.77814 101.61733Q541.29376 102.03921 541.29376 103.22671L541.29376 106.63296L540.2469 106.63296ZM551.4969 104.63296L552.59064 104.75796Q552.34064 105.71108 551.6375 106.24233Q550.9344 106.77358 549.85626 106.77358Q548.4969 106.77358 547.6844 105.92983Q546.8875 105.08608 546.8875 103.57046Q546.8875 102.00796 547.7 101.14858Q548.5125 100.27358 549.79376 100.27358Q551.04376 100.27358 551.825 101.11733Q552.6219 101.96108 552.6219 103.50796Q552.6219 103.60171 552.6219 103.78921L547.98126 103.78921Q548.04376 104.82046 548.5594 105.36733Q549.075 105.89858 549.85626 105.89858Q550.4344 105.89858 550.84064 105.60171Q551.2625 105.28921 551.4969 104.63296ZM548.04376 102.92983L551.5125 102.92983Q551.45 102.13296 551.1219 101.74233Q550.60626 101.13296 549.8094 101.13296Q549.075 101.13296 548.575 101.61733Q548.09064 102.10171 548.04376 102.92983ZM553.825 104.77358L554.85626 104.61733Q554.95 105.24233 555.34064 105.57046Q555.7469 105.89858 556.48126 105.89858Q557.2 105.89858 557.54376 105.61733Q557.90314 105.32046 557.90314 104.91421Q557.90314 104.55483 557.59064 104.35171Q557.3719 104.21108 556.5125 103.99233Q555.35626 103.69546 554.90314 103.49233Q554.46564 103.27358 554.23126 102.89858Q553.9969 102.52358 553.9969 102.05483Q553.9969 101.64858 554.1844 101.28921Q554.3719 100.92983 554.7 100.69546Q554.95 100.52358 555.3719 100.39858Q555.79376 100.27358 556.29376 100.27358Q557.0125 100.27358 557.5594 100.49233Q558.1219 100.69546 558.3875 101.05483Q558.65314 101.41421 558.7469 102.00796L557.71564 102.14858Q557.65314 101.67983 557.3094 101.41421Q556.98126 101.13296 556.35626 101.13296Q555.6375 101.13296 555.325 101.38296Q555.0125 101.61733 555.0125 101.94546Q555.0125 102.14858 555.1375 102.30483Q555.27814 102.47671 555.54376 102.58608Q555.7 102.64858 556.48126 102.85171Q557.60626 103.16421 558.04376 103.35171Q558.48126 103.53921 558.73126 103.89858Q558.98126 104.25796 558.98126 104.80483Q558.98126 105.33608 558.66876 105.80483Q558.3719 106.25796 557.79376 106.52358Q557.21564 106.77358 556.48126 106.77358Q555.2625 106.77358 554.6219 106.27358Q553.9969 105.75796 553.825 104.77358ZM560.825 104.77358L561.85626 104.61733Q561.95 105.24233 562.34064 105.57046Q562.7469 105.89858 563.48126 105.89858Q564.2 105.89858 564.54376 105.61733Q564.90314 105.32046 564.90314 104.91421Q564.90314 104.55483 564.59064 104.35171Q564.3719 104.21108 563.5125 103.99233Q562.35626 103.69546 561.90314 103.49233Q561.46564 103.27358 561.23126 102.89858Q560.9969 102.52358 560.9969 102.05483Q560.9969 101.64858 561.1844 101.28921Q561.3719 100.92983 561.7 100.69546Q561.95 100.52358 562.3719 100.39858Q562.79376 100.27358 563.29376 100.27358Q564.0125 100.27358 564.5594 100.49233Q565.1219 100.69546 565.3875 101.05483Q565.65314 101.41421 565.7469 102.00796L564.71564 102.14858Q564.65314 101.67983 564.3094 101.41421Q563.98126 101.13296 563.35626 101.13296Q562.6375 101.13296 562.325 101.38296Q562.0125 101.61733 562.0125 101.94546Q562.0125 102.14858 562.1375 102.30483Q562.27814 102.47671 562.54376 102.58608Q562.7 102.64858 563.48126 102.85171Q564.60626 103.16421 565.04376 103.35171Q565.48126 103.53921 565.73126 103.89858Q565.98126 104.25796 565.98126 104.80483Q565.98126 105.33608 565.66876 105.80483Q565.3719 106.25796 564.79376 106.52358Q564.21564 106.77358 563.48126 106.77358Q562.2625 106.77358 561.6219 106.27358Q560.9969 105.75796 560.825 104.77358ZM572.4969 104.63296L573.59064 104.75796Q573.34064 105.71108 572.6375 106.24233Q571.9344 106.77358 570.85626 106.77358Q569.4969 106.77358 568.6844 105.92983Q567.8875 105.08608 567.8875 103.57046Q567.8875 102.00796 568.7 101.14858Q569.5125 100.27358 570.79376 100.27358Q572.04376 100.27358 572.825 101.11733Q573.6219 101.96108 573.6219 103.50796Q573.6219 103.60171 573.6219 103.78921L568.98126 103.78921Q569.04376 104.82046 569.5594 105.36733Q570.075 105.89858 570.85626 105.89858Q571.4344 105.89858 571.84064 105.60171Q572.2625 105.28921 572.4969 104.63296ZM569.04376 102.92983L572.5125 102.92983Q572.45 102.13296 572.1219 101.74233Q571.60626 101.13296 570.8094 101.13296Q570.075 101.13296 569.575 101.61733Q569.09064 102.10171 569.04376 102.92983ZM574.825 104.77358L575.85626 104.61733Q575.95 105.24233 576.34064 105.57046Q576.7469 105.89858 577.48126 105.89858Q578.2 105.89858 578.54376 105.61733Q578.90314 105.32046 578.90314 104.91421Q578.90314 104.55483 578.59064 104.35171Q578.3719 104.21108 577.5125 103.99233Q576.35626 103.69546 575.90314 103.49233Q575.46564 103.27358 575.23126 102.89858Q574.9969 102.52358 574.9969 102.05483Q574.9969 101.64858 575.1844 101.28921Q575.3719 100.92983 575.7 100.69546Q575.95 100.52358 576.3719 100.39858Q576.79376 100.27358 577.29376 100.27358Q578.0125 100.27358 578.5594 100.49233Q579.1219 100.69546 579.3875 101.05483Q579.65314 101.41421 579.7469 102.00796L578.71564 102.14858Q578.65314 101.67983 578.3094 101.41421Q577.98126 101.13296 577.35626 101.13296Q576.6375 101.13296 576.325 101.38296Q576.0125 101.61733 576.0125 101.94546Q576.0125 102.14858 576.1375 102.30483Q576.27814 102.47671 576.54376 102.58608Q576.7 102.64858 577.48126 102.85171Q578.60626 103.16421 579.04376 103.35171Q579.48126 103.53921 579.73126 103.89858Q579.98126 104.25796 579.98126 104.80483Q579.98126 105.33608 579.66876 105.80483Q579.3719 106.25796 578.79376 106.52358Q578.21564 106.77358 577.48126 106.77358Q576.2625 106.77358 575.6219 106.27358Q574.9969 105.75796 574.825 104.77358Z" fill-rule="nonzero"/><path fill="#8b8d91" d="M552.4969 122.61733L552.4969 123.63296L546.8094 123.63296Q546.8094 123.25796 546.9344 122.89858Q547.15314 122.32046 547.6219 121.75796Q548.10626 121.19546 549.0125 120.46108Q550.41876 119.30483 550.90314 118.63296Q551.40314 117.96108 551.40314 117.36733Q551.40314 116.74233 550.95 116.32046Q550.4969 115.88296 549.77814 115.88296Q549.0125 115.88296 548.5594 116.33608Q548.10626 116.78921 548.09064 117.60171L547.0125 117.49233Q547.1219 116.27358 547.84064 115.64858Q548.575 115.00796 549.8094 115.00796Q551.04376 115.00796 551.7625 115.69546Q552.48126 116.38296 552.48126 117.39858Q552.48126 117.91421 552.2625 118.41421Q552.0594 118.89858 551.5594 119.46108Q551.075 120.00796 549.95 120.96108Q548.9969 121.75796 548.71564 122.05483Q548.45 122.33608 548.27814 122.61733L552.4969 122.61733ZM554.0125 116.16421L554.0125 115.14858L559.575 115.14858L559.575 115.97671Q558.7625 116.85171 557.95 118.30483Q557.15314 119.74233 556.71564 121.27358Q556.3875 122.35171 556.3094 123.63296L555.21564 123.63296Q555.23126 122.61733 555.60626 121.17983Q555.9969 119.74233 556.7 118.41421Q557.41876 117.08608 558.23126 116.16421L554.0125 116.16421ZM561.54376 123.63296L561.54376 122.42983L562.7469 122.42983L562.7469 123.63296L561.54376 123.63296ZM563.95 121.36733L565.0125 121.22671Q565.1844 122.11733 565.6219 122.52358Q566.0594 122.91421 566.6844 122.91421Q567.4344 122.91421 567.95 122.39858Q568.46564 121.88296 568.46564 121.11733Q568.46564 120.39858 567.98126 119.92983Q567.5125 119.44546 566.77814 119.44546Q566.48126 119.44546 566.02814 119.57046L566.15314 118.63296Q566.2625 118.64858 566.325 118.64858Q566.9969 118.64858 567.52814 118.30483Q568.075 117.94546 568.075 117.21108Q568.075 116.63296 567.6844 116.25796Q567.29376 115.86733 566.66876 115.86733Q566.0594 115.86733 565.6375 116.25796Q565.23126 116.64858 565.1219 117.41421L564.0594 117.22671Q564.2469 116.17983 564.9344 115.60171Q565.6219 115.00796 566.6375 115.00796Q567.34064 115.00796 567.9344 115.32046Q568.52814 115.61733 568.84064 116.13296Q569.15314 116.64858 569.15314 117.24233Q569.15314 117.78921 568.85626 118.25796Q568.5594 118.71108 567.98126 118.97671Q568.73126 119.14858 569.15314 119.71108Q569.575 120.25796 569.575 121.10171Q569.575 122.22671 568.7469 123.00796Q567.9344 123.78921 566.6844 123.78921Q565.5594 123.78921 564.8094 123.11733Q564.0594 122.42983 563.95 121.36733ZM571.15314 117.10171Q571.15314 116.17983 571.60626 115.53921Q572.075 114.89858 572.95 114.89858Q573.7625 114.89858 574.29376 115.47671Q574.825 116.05483 574.825 117.16421Q574.825 118.25796 574.27814 118.85171Q573.7469 119.42983 572.96564 119.42983Q572.1844 119.42983 571.66876 118.85171Q571.15314 118.27358 571.15314 117.10171ZM572.98126 115.61733Q572.59064 115.61733 572.325 115.96108Q572.075 116.30483 572.075 117.21108Q572.075 118.03921 572.325 118.38296Q572.59064 118.71108 572.98126 118.71108Q573.3875 118.71108 573.6375 118.36733Q573.90314 118.02358 573.90314 117.13296Q573.90314 116.28921 573.6375 115.96108Q573.3719 115.61733 572.98126 115.61733ZM572.98126 123.94546L577.6844 114.89858L578.54376 114.89858L573.85626 123.94546L572.98126 123.94546ZM576.7 121.61733Q576.7 120.69546 577.15314 120.05483Q577.6219 119.41421 578.5125 119.41421Q579.325 119.41421 579.85626 119.99233Q580.3875 120.55483 580.3875 121.67983Q580.3875 122.77358 579.84064 123.36733Q579.3094 123.94546 578.5125 123.94546Q577.7469 123.94546 577.21564 123.36733Q576.7 122.78921 576.7 121.61733ZM578.54376 120.13296Q578.1375 120.13296 577.8719 120.47671Q577.6219 120.82046 577.6219 121.72671Q577.6219 122.53921 577.8875 122.88296Q578.15314 123.22671 578.54376 123.22671Q578.9344 123.22671 579.2 122.88296Q579.46564 122.53921 579.46564 121.63296Q579.46564 120.80483 579.2 120.47671Q578.9344 120.13296 578.54376 120.13296Z" fill-rule="nonzero"/><path stroke="#b4b6b9" stroke-width="1.0" stroke-linecap="butt" d="M581.45 111.13296L454.76666 111.13296L406.80884 111.13296" fill-rule="nonzero"/><path fill="#8b8d91" d="M408.80884 111.13296C408.80884 110.02839 407.9134 109.13296 406.80884 109.13296C405.70425 109.13296 404.80884 110.02839 404.80884 111.13296C404.80884 112.237526 405.70425 113.13296 406.80884 113.13296C407.9134 113.13296 408.80884 112.237526 408.80884 111.13296" fill-rule="nonzero"/><path fill="#ffffff" d="M215.07812 37.55L215.07812 23.2375L221.42188 23.2375Q223.32812 23.2375 224.32812 23.628124Q225.32812 24.003124 225.92188 24.9875Q226.51562 25.95625 226.51562 27.14375Q226.51562 28.659374 225.53125 29.70625Q224.54688 30.753124 222.48438 31.034374Q223.23438 31.39375 223.625 31.753124Q224.45312 32.503124 225.20312 33.659374L227.6875 37.55L225.3125 37.55L223.40625 34.565624Q222.57812 33.284374 222.04688 32.596874Q221.51562 31.909374 221.07812 31.64375Q220.65625 31.3625 220.21875 31.253124Q219.89062 31.190624 219.17188 31.190624L216.96875 31.190624L216.96875 37.55L215.07812 37.55ZM216.96875 29.55L221.04688 29.55Q222.34375 29.55 223.0625 29.284374Q223.79688 29.01875 224.17188 28.425Q224.5625 27.83125 224.5625 27.14375Q224.5625 26.128124 223.82812 25.471874Q223.09375 24.815624 221.5 24.815624L216.96875 24.815624L216.96875 29.55ZM235.92188 34.20625L237.73438 34.440624Q237.3125 36.01875 236.14062 36.909374Q234.98438 37.784374 233.17188 37.784374Q230.90625 37.784374 229.5625 36.39375Q228.23438 34.9875 228.23438 32.45625Q228.23438 29.83125 229.57812 28.39375Q230.92188 26.940624 233.07812 26.940624Q235.15625 26.940624 236.46875 28.3625Q237.79688 29.76875 237.79688 32.346874Q237.79688 32.503124 237.78125 32.815624L230.04688 32.815624Q230.14062 34.51875 231.01562 35.425Q231.89062 36.33125 233.1875 36.33125Q234.15625 36.33125 234.82812 35.83125Q235.51562 35.315624 235.92188 34.20625ZM230.14062 31.3625L235.9375 31.3625Q235.82812 30.065624 235.28125 29.409374Q234.4375 28.39375 233.09375 28.39375Q231.89062 28.39375 231.0625 29.20625Q230.23438 30.003124 230.14062 31.3625ZM246.59375 36.26875Q245.60938 37.096874 244.70312 37.440624Q243.79688 37.784374 242.76562 37.784374Q241.0625 37.784374 240.14062 36.95625Q239.21875 36.1125 239.21875 34.815624Q239.21875 34.05 239.5625 33.425Q239.92188 32.8 240.48438 32.425Q241.04688 32.034374 241.75 31.83125Q242.26562 31.70625 243.3125 31.565624Q245.4375 31.315624 246.4375 30.971874Q246.45312 30.6125 246.45312 30.503124Q246.45312 29.440624 245.95312 28.9875Q245.28125 28.39375 243.95312 28.39375Q242.70312 28.39375 242.10938 28.83125Q241.53125 29.26875 241.25 30.378124L239.53125 30.14375Q239.76562 29.034374 240.29688 28.3625Q240.82812 27.675 241.84375 27.315624Q242.85938 26.940624 244.20312 26.940624Q245.53125 26.940624 246.35938 27.253124Q247.1875 27.565624 247.57812 28.05Q247.96875 28.51875 248.125 29.2375Q248.21875 29.690624 248.21875 30.8625L248.21875 33.20625Q248.21875 35.659374 248.32812 36.315624Q248.4375 36.95625 248.78125 37.55L246.9375 37.55Q246.67188 37.003124 246.59375 36.26875ZM246.4375 32.346874Q245.48438 32.7375 243.5625 33.003124Q242.48438 33.159374 242.03125 33.3625Q241.59375 33.55 241.34375 33.925Q241.09375 34.3 241.09375 34.76875Q241.09375 35.471874 241.625 35.940624Q242.15625 36.409374 243.1875 36.409374Q244.20312 36.409374 244.98438 35.971874Q245.78125 35.51875 246.15625 34.753124Q246.4375 34.14375 246.4375 32.9875L246.4375 32.346874ZM257.59375 33.753124L259.3125 33.971874Q259.03125 35.76875 257.85938 36.784374Q256.70312 37.784374 255.0 37.784374Q252.875 37.784374 251.57812 36.39375Q250.28125 35.003124 250.28125 32.409374Q250.28125 30.721874 250.82812 29.471874Q251.39062 28.20625 252.53125 27.58125Q253.67188 26.940624 255.01562 26.940624Q256.70312 26.940624 257.76562 27.8Q258.84375 28.659374 259.15625 30.221874L257.4375 30.4875Q257.20312 29.440624 256.57812 28.925Q255.95312 28.39375 255.07812 28.39375Q253.75 28.39375 252.92188 29.346874Q252.09375 30.3 252.09375 32.346874Q252.09375 34.440624 252.89062 35.39375Q253.6875 36.33125 254.98438 36.33125Q256.01562 36.33125 256.70312 35.70625Q257.40625 35.065624 257.59375 33.753124ZM264.65625 35.971874L264.90625 37.534374Q264.17188 37.690624 263.57812 37.690624Q262.625 37.690624 262.09375 37.39375Q261.57812 37.08125 261.35938 36.596874Q261.14062 36.096874 261.14062 34.51875L261.14062 28.55L259.85938 28.55L259.85938 27.175L261.14062 27.175L261.14062 24.6125L262.89062 23.55L262.89062 27.175L264.65625 27.175L264.65625 28.55L262.89062 28.55L262.89062 34.6125Q262.89062 35.3625 262.98438 35.58125Q263.07812 35.784374 263.28125 35.925Q263.5 36.05 263.89062 36.05Q264.17188 36.05 264.65625 35.971874ZM266.07812 33.4875L267.78125 33.253124Q267.85938 34.89375 268.40625 35.503124Q268.95312 36.096874 269.92188 36.096874Q270.625 36.096874 271.14062 35.784374Q271.65625 35.45625 271.84375 34.89375Q272.04688 34.33125 272.04688 33.096874L272.04688 23.2375L273.95312 23.2375L273.95312 32.9875Q273.95312 34.784374 273.51562 35.76875Q273.07812 36.753124 272.125 37.284374Q271.1875 37.8 269.92188 37.8Q268.04688 37.8 267.03125 36.721874Q266.03125 35.628124 266.07812 33.4875ZM276.40625 32.95625L278.1875 32.8Q278.3125 33.8625 278.76562 34.55Q279.23438 35.2375 280.20312 35.675Q281.1875 36.096874 282.42188 36.096874Q283.5 36.096874 284.32812 35.784374Q285.15625 35.45625 285.5625 34.89375Q285.96875 34.33125 285.96875 33.659374Q285.96875 32.9875 285.57812 32.4875Q285.1875 31.9875 284.29688 31.64375Q283.71875 31.409374 281.73438 30.940624Q279.76562 30.471874 278.98438 30.05Q277.95312 29.51875 277.45312 28.721874Q276.95312 27.925 276.95312 26.940624Q276.95312 25.846874 277.5625 24.909374Q278.17188 23.971874 279.35938 23.4875Q280.54688 22.9875 281.98438 22.9875Q283.57812 22.9875 284.79688 23.503124Q286.01562 24.01875 286.65625 25.01875Q287.3125 26.003124 287.35938 27.26875L285.54688 27.409374Q285.40625 26.05 284.5625 25.3625Q283.71875 24.659374 282.0625 24.659374Q280.34375 24.659374 279.54688 25.3Q278.76562 25.925 278.76562 26.8Q278.76562 27.58125 279.32812 28.08125Q279.875 28.58125 282.1875 29.096874Q284.5 29.6125 285.35938 30.003124Q286.60938 30.58125 287.20312 31.471874Q287.79688 32.346874 287.79688 33.503124Q287.79688 34.64375 287.14062 35.659374Q286.48438 36.675 285.25 37.2375Q284.03125 37.8 282.5 37.8Q280.5625 37.8 279.25 37.2375Q277.9375 36.659374 277.1875 35.51875Q276.4375 34.378124 276.40625 32.95625ZM305.4375 23.2375L307.32812 23.2375L307.32812 31.503124Q307.32812 33.659374 306.84375 34.940624Q306.35938 36.20625 305.07812 37.003124Q303.8125 37.8 301.73438 37.8Q299.71875 37.8 298.4375 37.1125Q297.17188 36.409374 296.625 35.096874Q296.07812 33.784374 296.07812 31.503124L296.07812 23.2375L297.96875 23.2375L297.96875 31.4875Q297.96875 33.3625 298.3125 34.253124Q298.65625 35.128124 299.5 35.6125Q300.34375 36.08125 301.57812 36.08125Q303.65625 36.08125 304.54688 35.14375Q305.4375 34.190624 305.4375 31.4875L305.4375 23.2375ZM308.10938 34.45625L309.85938 34.175Q310.0 35.221874 310.67188 35.784374Q311.34375 36.33125 312.54688 36.33125Q313.75 36.33125 314.32812 35.846874Q314.92188 35.346874 314.92188 34.690624Q314.92188 34.096874 314.40625 33.753124Q314.04688 33.51875 312.60938 33.159374Q310.67188 32.659374 309.92188 32.315624Q309.1875 31.95625 308.79688 31.33125Q308.40625 30.690624 308.40625 29.925Q308.40625 29.2375 308.71875 28.64375Q309.04688 28.05 309.59375 27.659374Q310.0 27.3625 310.70312 27.159374Q311.42188 26.940624 312.23438 26.940624Q313.45312 26.940624 314.375 27.3Q315.29688 27.64375 315.73438 28.253124Q316.17188 28.846874 316.34375 29.846874L314.625 30.08125Q314.5 29.284374 313.9375 28.846874Q313.375 28.39375 312.35938 28.39375Q311.14062 28.39375 310.625 28.8Q310.10938 29.190624 310.10938 29.721874Q310.10938 30.065624 310.32812 30.346874Q310.53125 30.628124 311.0 30.815624Q311.26562 30.909374 312.54688 31.253124Q314.42188 31.753124 315.15625 32.08125Q315.89062 32.39375 316.3125 33.003124Q316.73438 33.596874 316.73438 34.503124Q316.73438 35.378124 316.21875 36.159374Q315.70312 36.940624 314.73438 37.3625Q313.76562 37.784374 312.54688 37.784374Q310.53125 37.784374 309.46875 36.940624Q308.40625 36.096874 308.10938 34.45625ZM325.92188 34.20625L327.73438 34.440624Q327.3125 36.01875 326.14062 36.909374Q324.98438 37.784374 323.17188 37.784374Q320.90625 37.784374 319.5625 36.39375Q318.23438 34.9875 318.23438 32.45625Q318.23438 29.83125 319.57812 28.39375Q320.92188 26.940624 323.07812 26.940624Q325.15625 26.940624 326.46875 28.3625Q327.79688 29.76875 327.79688 32.346874Q327.79688 32.503124 327.78125 32.815624L320.04688 32.815624Q320.14062 34.51875 321.01562 35.425Q321.89062 36.33125 323.1875 36.33125Q324.15625 36.33125 324.82812 35.83125Q325.51562 35.315624 325.92188 34.20625ZM320.14062 31.3625L325.9375 31.3625Q325.82812 30.065624 325.28125 29.409374Q324.4375 28.39375 323.09375 28.39375Q321.89062 28.39375 321.0625 29.20625Q320.23438 30.003124 320.14062 31.3625ZM329.79688 37.55L329.79688 27.175L331.375 27.175L331.375 28.753124Q331.98438 27.64375 332.5 27.3Q333.01562 26.940624 333.625 26.940624Q334.51562 26.940624 335.4375 27.503124L334.82812 29.14375Q334.1875 28.753124 333.54688 28.753124Q332.96875 28.753124 332.5 29.1125Q332.04688 29.45625 331.84375 30.065624Q331.5625 31.003124 331.5625 32.1125L331.5625 37.55L329.79688 37.55ZM342.96875 37.55L342.96875 23.2375L348.34375 23.2375Q349.98438 23.2375 350.96875 23.675Q351.95312 24.096874 352.51562 25.003124Q353.07812 25.909374 353.07812 26.89375Q353.07812 27.815624 352.57812 28.628124Q352.09375 29.440624 351.07812 29.925Q352.375 30.315624 353.07812 31.2375Q353.78125 32.14375 353.78125 33.39375Q353.78125 34.409374 353.34375 35.26875Q352.92188 36.128124 352.29688 36.596874Q351.67188 37.065624 350.73438 37.315624Q349.79688 37.55 348.42188 37.55L342.96875 37.55ZM344.85938 29.253124L347.95312 29.253124Q349.21875 29.253124 349.76562 29.08125Q350.48438 28.8625 350.84375 28.378124Q351.21875 27.878124 351.21875 27.1125Q351.21875 26.409374 350.875 25.8625Q350.53125 25.315624 349.89062 25.128124Q349.26562 24.925 347.71875 24.925L344.85938 24.925L344.85938 29.253124ZM344.85938 35.8625L348.42188 35.8625Q349.34375 35.8625 349.71875 35.784374Q350.375 35.675 350.8125 35.409374Q351.25 35.128124 351.53125 34.6125Q351.8125 34.08125 351.8125 33.39375Q351.8125 32.596874 351.40625 32.003124Q351.0 31.409374 350.26562 31.175Q349.53125 30.940624 348.17188 30.940624L344.85938 30.940624L344.85938 35.8625ZM362.59375 36.26875Q361.60938 37.096874 360.70312 37.440624Q359.79688 37.784374 358.76562 37.784374Q357.0625 37.784374 356.14062 36.95625Q355.21875 36.1125 355.21875 34.815624Q355.21875 34.05 355.5625 33.425Q355.92188 32.8 356.48438 32.425Q357.04688 32.034374 357.75 31.83125Q358.26562 31.70625 359.3125 31.565624Q361.4375 31.315624 362.4375 30.971874Q362.45312 30.6125 362.45312 30.503124Q362.45312 29.440624 361.95312 28.9875Q361.28125 28.39375 359.95312 28.39375Q358.70312 28.39375 358.10938 28.83125Q357.53125 29.26875 357.25 30.378124L355.53125 30.14375Q355.76562 29.034374 356.29688 28.3625Q356.82812 27.675 357.84375 27.315624Q358.85938 26.940624 360.20312 26.940624Q361.53125 26.940624 362.35938 27.253124Q363.1875 27.565624 363.57812 28.05Q363.96875 28.51875 364.125 29.2375Q364.21875 29.690624 364.21875 30.8625L364.21875 33.20625Q364.21875 35.659374 364.32812 36.315624Q364.4375 36.95625 364.78125 37.55L362.9375 37.55Q362.67188 37.003124 362.59375 36.26875ZM362.4375 32.346874Q361.48438 32.7375 359.5625 33.003124Q358.48438 33.159374 358.03125 33.3625Q357.59375 33.55 357.34375 33.925Q357.09375 34.3 357.09375 34.76875Q357.09375 35.471874 357.625 35.940624Q358.15625 36.409374 359.1875 36.409374Q360.20312 36.409374 360.98438 35.971874Q361.78125 35.51875 362.15625 34.753124Q362.4375 34.14375 362.4375 32.9875L362.4375 32.346874ZM366.10938 34.45625L367.85938 34.175Q368.0 35.221874 368.67188 35.784374Q369.34375 36.33125 370.54688 36.33125Q371.75 36.33125 372.32812 35.846874Q372.92188 35.346874 372.92188 34.690624Q372.92188 34.096874 372.40625 33.753124Q372.04688 33.51875 370.60938 33.159374Q368.67188 32.659374 367.92188 32.315624Q367.1875 31.95625 366.79688 31.33125Q366.40625 30.690624 366.40625 29.925Q366.40625 29.2375 366.71875 28.64375Q367.04688 28.05 367.59375 27.659374Q368.0 27.3625 368.70312 27.159374Q369.42188 26.940624 370.23438 26.940624Q371.45312 26.940624 372.375 27.3Q373.29688 27.64375 373.73438 28.253124Q374.17188 28.846874 374.34375 29.846874L372.625 30.08125Q372.5 29.284374 371.9375 28.846874Q371.375 28.39375 370.35938 28.39375Q369.14062 28.39375 368.625 28.8Q368.10938 29.190624 368.10938 29.721874Q368.10938 30.065624 368.32812 30.346874Q368.53125 30.628124 369.0 30.815624Q369.26562 30.909374 370.54688 31.253124Q372.42188 31.753124 373.15625 32.08125Q373.89062 32.39375 374.3125 33.003124Q374.73438 33.596874 374.73438 34.503124Q374.73438 35.378124 374.21875 36.159374Q373.70312 36.940624 372.73438 37.3625Q371.76562 37.784374 370.54688 37.784374Q368.53125 37.784374 367.46875 36.940624Q366.40625 36.096874 366.10938 34.45625ZM383.92188 34.20625L385.73438 34.440624Q385.3125 36.01875 384.14062 36.909374Q382.98438 37.784374 381.17188 37.784374Q378.90625 37.784374 377.5625 36.39375Q376.23438 34.9875 376.23438 32.45625Q376.23438 29.83125 377.57812 28.39375Q378.92188 26.940624 381.07812 26.940624Q383.15625 26.940624 384.46875 28.3625Q385.79688 29.76875 385.79688 32.346874Q385.79688 32.503124 385.78125 32.815624L378.04688 32.815624Q378.14062 34.51875 379.01562 35.425Q379.89062 36.33125 381.1875 36.33125Q382.15625 36.33125 382.82812 35.83125Q383.51562 35.315624 383.92188 34.20625ZM378.14062 31.3625L383.9375 31.3625Q383.82812 30.065624 383.28125 29.409374Q382.4375 28.39375 381.09375 28.39375Q379.89062 28.39375 379.0625 29.20625Q378.23438 30.003124 378.14062 31.3625Z" fill-rule="nonzero"/></svg>